<svg xmlns="http://www.w3.org/2000/svg"><defs><font id="iconfont" horiz-adv-x="1024"><font-face font-family="iconfont" font-weight="400" units-per-em="1024" ascent="896" descent="-128"/><glyph glyph-name="icon_hotkey" unicode="" d="M71.168 682.667A85.333 85.333 0 0 0 156.501 768h711.126a85.333 85.333 0 0 0 85.333-85.333V85.333A85.333 85.333 0 0 0 867.627 0H156.5a85.333 85.333 0 0 0-85.333 85.333v597.334zm796.459 0H156.5V85.333h711.126v597.334zm-568.96-227.584a42.667 42.667 0 1 0-85.334 0 42.667 42.667 0 0 0 85.334 0zm0-170.667a42.667 42.667 0 1 0-85.334 0 42.667 42.667 0 0 0 85.334 0zm128 128a42.667 42.667 0 1 1 0 85.333 42.667 42.667 0 0 1 0-85.333zM640 455.083a42.667 42.667 0 1 0-85.333 0 42.667 42.667 0 0 0 85.333 0zm128-42.667a42.667 42.667 0 1 1 0 85.333 42.667 42.667 0 0 1 0-85.333zm42.667-128a42.667 42.667 0 1 0-85.334 0 42.667 42.667 0 0 0 85.334 0zm-384 42.667a42.667 42.667 0 1 1 0-85.334h170.666a42.667 42.667 0 1 1 0 85.334H426.667z" horiz-adv-x="1024"/><glyph glyph-name="icon_unblock" unicode="" d="M42.667 384a42.667 42.667 0 0 1 42.666-42.667h451.84l-98.133-97.706a42.752 42.752 0 0 1 13.867-69.931 42.667 42.667 0 0 1 46.72 9.344l170.666 170.667a42.667 42.667 0 0 1 8.96 14.08 42.667 42.667 0 0 1 0 32.426 42.667 42.667 0 0 1-8.96 14.08L499.627 584.96a42.795 42.795 0 1 1-60.587-60.587l98.133-97.706H85.333A42.667 42.667 0 0 1 42.667 384zm768 426.667H341.333a128 128 0 0 1-128-128v-85.334a42.667 42.667 0 0 1 85.334 0v85.334a42.667 42.667 0 0 0 42.666 42.666h469.334a42.667 42.667 0 0 0 42.666-42.666V85.333a42.667 42.667 0 0 0-42.666-42.666H341.333a42.667 42.667 0 0 0-42.666 42.666v85.334a42.667 42.667 0 1 1-85.334 0V85.333a128 128 0 0 1 128-128h469.334a128 128 0 0 1 128 128v597.334a128 128 0 0 1-128 128z" horiz-adv-x="1024"/><glyph glyph-name="icon_date" unicode="" d="M810.667 725.333h-85.334V768A42.667 42.667 0 0 1 640 768v-42.667H384V768a42.667 42.667 0 0 1-85.333 0v-42.667h-85.334a128 128 0 0 1-128-128v-512a128 128 0 0 1 128-128h597.334a128 128 0 0 1 128 128v512a128 128 0 0 1-128 128zm42.666-640a42.667 42.667 0 0 0-42.666-42.666H213.333a42.667 42.667 0 0 0-42.666 42.666V384h682.666V85.333zm0 384H170.667v128A42.667 42.667 0 0 0 213.333 640h85.334v-42.667a42.667 42.667 0 0 1 85.333 0V640h256v-42.667a42.667 42.667 0 0 1 85.333 0V640h85.334a42.667 42.667 0 0 0 42.666-42.667v-128z" horiz-adv-x="1024"/><glyph glyph-name="icon_perp" unicode="" d="M213.333 810.667a128 128 0 0 1-128-128V85.333a128 128 0 0 1 128-128h597.334a128 128 0 0 1 128 128v597.334a128 128 0 0 1-128 128H213.333zm-42.666-128a42.667 42.667 0 0 0 42.666 42.666h597.334a42.667 42.667 0 0 0 42.666-42.666V85.333a42.667 42.667 0 0 0-42.666-42.666H213.333a42.667 42.667 0 0 0-42.666 42.666v597.334zm128-85.334a42.667 42.667 0 0 1 0-85.333h426.666a42.667 42.667 0 1 1 0 85.333H298.667zM512 384a42.667 42.667 0 0 0 42.667 42.667h170.666a42.667 42.667 0 1 0 0-85.334H554.667A42.667 42.667 0 0 0 512 384zm0-170.667A42.667 42.667 0 0 0 554.667 256h170.666a42.667 42.667 0 1 0 0-85.333H554.667A42.667 42.667 0 0 0 512 213.333zM371.499 417.835a42.667 42.667 0 0 1-60.331-60.331l60.33-60.33-59.647-59.649a42.667 42.667 0 1 1 60.33-60.33l87.467 87.466a42.667 42.667 0 0 1 2.347 62.635l-90.454 90.539z" horiz-adv-x="1024"/><glyph glyph-name="icon_spot" unicode="" d="M785.92 767.061A158.805 158.805 0 0 0 901.12 614.4V576a43.52 43.52 0 0 0-87.04 0v38.4a71.68 71.68 0 0 1-71.68 71.68H704a43.52 43.52 0 0 0-30.72 74.283l38.4 38.4a43.52 43.52 0 0 0 74.24-31.702zM263.253 216.832a312.32 312.32 0 1 0 416 416 43.52 43.52 0 0 0-13.952-54.016 312.363 312.363 0 1 0-348.16-348.16 43.52 43.52 0 0 0-53.888-13.824zm52.011 67.285A312.32 312.32 0 0 0 612.011 580.78a43.392 43.392 0 0 0-11.435 14.762 225.28 225.28 0 1 1-300.032-300.074c5.845-2.774 10.795-6.656 14.72-11.35zM852.437 268.8a225.28 225.28 0 1 1-450.517 0 225.28 225.28 0 0 1 450.56 0zm-729.6-76.8a43.52 43.52 0 0 0 87.04 0v-38.4c0-39.595 32.128-71.68 71.68-71.68h38.4a43.52 43.52 0 0 0 30.806-74.283l-38.4-38.4A43.52 43.52 0 0 0 238.123.896 158.805 158.805 0 0 0 122.795 153.6V192z" horiz-adv-x="1024"/><glyph glyph-name="icon_map-pin" unicode="" d="M270.636 710.7a341.331 341.331 0 0 0 582.695-241.364c0-132.18-86.015-260.436-180.308-359.976A1254.904 1254.904 0 0 0 512-32.976a1255.203 1255.203 0 0 0-161.023 142.293c-94.293 99.626-180.308 227.881-180.308 360.019A341.331 341.331 0 0 0 270.636 710.7zM488.32-120.826 512-85.327l23.68-35.499a42.666 42.666 0 0 0-47.36 0zm0 0L512-85.327c23.68-35.499 23.723-35.456 23.723-35.456l.085.043.299.213.98.64 3.5 2.432c3.071 2.133 7.423 5.12 12.885 9.13A1341.133 1341.133 0 0 1 734.975 50.694c97.706 103.04 203.689 252.116 203.689 418.643a426.664 426.664 0 0 1-853.328 0c0-166.484 105.983-315.56 203.69-418.685a1340.92 1340.92 0 0 1 181.502-158.975 805.84 805.84 0 0 1 16.384-11.52l.981-.683.3-.213.127-.086zm-61.653 590.162a85.333 85.333 0 1 0 170.666 0 85.333 85.333 0 0 0-170.666 0zM512 640.002a170.666 170.666 0 1 1 0-341.332 170.666 170.666 0 0 1 0 341.332z" horiz-adv-x="1024"/><glyph glyph-name="icon_pc" unicode="" d="M170.667 832A170.667 170.667 0 0 1 0 661.333v-384a170.667 170.667 0 0 1 170.667-170.666h298.666V21.333h-256V-64h597.334v85.333h-256v85.334h298.666A170.667 170.667 0 0 1 1024 277.333v384A170.667 170.667 0 0 1 853.333 832H170.667zM85.333 661.333a85.333 85.333 0 0 0 85.334 85.334h682.666a85.333 85.333 0 0 0 85.334-85.334v-384A85.333 85.333 0 0 0 853.333 192H170.667a85.333 85.333 0 0 0-85.334 85.333v384z" horiz-adv-x="1024"/><glyph glyph-name="icon_pad" unicode="" d="M512 42.667A42.667 42.667 0 1 0 512 128a42.667 42.667 0 0 0 0-85.333zM256 853.29A170.667 170.667 0 0 1 85.333 682.624V85.291A170.667 170.667 0 0 1 256-85.376h512A170.667 170.667 0 0 1 938.667 85.291v597.333A170.667 170.667 0 0 1 768 853.291H256zm-85.333-170.667A85.333 85.333 0 0 0 256 767.957h512a85.333 85.333 0 0 0 85.333-85.333V85.291A85.333 85.333 0 0 0 768-.043H256a85.333 85.333 0 0 0-85.333 85.334v597.333z" horiz-adv-x="1024"/><glyph glyph-name="icon_google" unicode="" d="M964.352 469.163a42.667 42.667 0 0 1-41.984 35.072H520.533a42.667 42.667 0 0 1-42.666-42.667V296.533a42.667 42.667 0 0 1 42.666-42.666H689.58a155.973 155.973 0 0 0-48.256-50.646 215.893 215.893 0 0 0-120.79-33.536 210.56 210.56 0 0 0-198.229 146.688v.086a209.237 209.237 0 0 0 0 135.125v.085a210.603 210.603 0 0 0 198.23 146.603 186.795 186.795 0 0 0 133.589-51.925 42.667 42.667 0 0 1 59.69.64l122.368 122.368a42.667 42.667 0 0 1-1.066 61.397 453.29 453.29 0 0 1-314.582 122.581 467.2 467.2 0 0 1-419.37-258.517l-.043-.085A466.005 466.005 0 0 1 51.2 384a472.704 472.704 0 0 1 49.92-210.773l.043-.043a467.2 467.2 0 0 1 419.37-258.517A449.11 449.11 0 0 1 831.787 29.312l.042.043A460.203 460.203 0 0 1 972.8 374.272a536 536 0 0 1-8.448 94.89zM520.533 768a370.475 370.475 0 0 0 222.251-71.381l-62.037-61.995a275.755 275.755 0 0 1-160.214 48.981A293.845 293.845 0 0 1 264.96 532.14l-45.568 35.328-24.96 19.37A381.995 381.995 0 0 0 520.533 768zm-363.52-507.861a385.28 385.28 0 0 0 0 247.722l76.032-58.965a292.437 292.437 0 0 1 0-129.792l-76.074-58.965zM520.533 0A381.952 381.952 0 0 0 194.39 181.163l16.171 12.544 54.443 42.24a293.76 293.76 0 0 1 255.53-151.595 310.485 310.485 0 0 1 141.056 32.043l72.15-56.022A379.264 379.264 0 0 0 520.533 0zm278.443 117.76-7.808 6.101-58.752 45.611a239.19 239.19 0 0 1 59.733 119.253 42.667 42.667 0 0 1-41.984 50.475H563.2v79.701h322.09a455.654 455.654 0 0 0 2.177-44.629 386.219 386.219 0 0 0-88.491-256.47z" horiz-adv-x="1024"/><glyph glyph-name="a-icon_applynow" unicode="" d="M853.333 554.667a42.667 42.667 0 0 0-42.666 42.666v85.334A42.667 42.667 0 0 1 768 725.333H256a42.667 42.667 0 0 1-42.667-42.666V85.333A42.667 42.667 0 0 1 256 42.667h85.333a42.667 42.667 0 1 0 0-85.334H256a128 128 0 0 0-128 128v597.334a128 128 0 0 0 128 128h512a128 128 0 0 0 128-128v-85.334a42.667 42.667 0 0 0-42.667-42.666zM341.333 384a42.667 42.667 0 1 1 0-85.333h128a42.667 42.667 0 1 1 0 85.333h-128zm0 213.333a42.667 42.667 0 0 1 0-85.333h256a42.667 42.667 0 1 1 0 85.333h-256zM660.352 75.82l-66.133-17.366 17.365 66.134c2.688 10.282 8.107 19.669 15.573 27.178l230.528 230.528a42.667 42.667 0 0 0 60.374-60.33L687.488 91.435a59.99 59.99 0 0 0-27.136-15.616zM544.128-42.923 682.027-6.656a145.28 145.28 0 0 1 65.834 37.76L978.39 261.632a128 128 0 1 1-181.034 180.992L566.827 212.096a145.28 145.28 0 0 1-37.76-65.792L492.8 8.405a42.027 42.027 0 0 1 51.328-51.328z" horiz-adv-x="1024"/><glyph glyph-name="icon_exit-drawing" unicode="" d="M151.723 465.835a85.333 85.333 0 0 0 20.053 31.616l269.91 269.952a178.176 178.176 0 1 0 251.989-251.947L423.68 245.504a85.333 85.333 0 0 0-31.616-20.053l-204.33-72.918C119.935 128.3 54.442 193.75 78.676 261.59l73.003 204.288zm80.341-28.715-72.96-204.288 204.288 73.003 269.952 269.952a92.843 92.843 0 0 1-131.328 131.285L232.106 437.12zm158.933 259.755a42.667 42.667 0 0 0 60.331 0l156.587-156.587a42.667 42.667 0 0 0-60.331-60.33L390.997 636.543a42.667 42.667 0 0 0 0 60.33zM174.08 479.915a42.667 42.667 0 0 0 60.33 0l156.587-156.587a42.667 42.667 0 1 0-60.33-60.33L174.08 419.583a42.667 42.667 0 0 0 0 60.33zM721.664 384a42.667 42.667 0 0 0 42.667 42.667h89.002a85.333 85.333 0 0 0 85.334-85.334V31.701a85.333 85.333 0 0 0-85.334-85.333h-89.002a42.667 42.667 0 1 0 0 85.333h89.002v309.632h-89.002A42.667 42.667 0 0 0 721.664 384zm-51.499-55.168a42.667 42.667 0 0 0 0-60.33l-128-128a42.667 42.667 0 0 0-60.33 60.33l128 128a42.667 42.667 0 0 0 60.33 0zm-188.33-128a42.667 42.667 0 0 0 60.33 0l128-128a42.667 42.667 0 0 0-60.33-60.33l-128 128a42.667 42.667 0 0 0 0 60.33zm-12.502-30.165A42.667 42.667 0 0 0 512 213.333h213.333a42.667 42.667 0 1 0 0-85.333H512a42.667 42.667 0 0 0-42.667 42.667z" horiz-adv-x="1024"/><glyph glyph-name="icon_log-out" unicode="" d="M371.499 140.501a42.667 42.667 0 0 0-60.331 0L97.835 353.835a42.667 42.667 0 0 0 0 60.33L311.168 627.5a42.667 42.667 0 0 0 60.33-60.331L188.332 384l183.168-183.168a42.667 42.667 0 0 0 0-60.33zM682.667 384A42.667 42.667 0 0 0 640 341.333H128a42.667 42.667 0 1 0 0 85.334h512A42.667 42.667 0 0 0 682.667 384zm128-341.333a42.667 42.667 0 0 1 42.666 42.666v597.334a42.667 42.667 0 0 1-42.666 42.666H640a42.667 42.667 0 1 0 0 85.334h170.667a128 128 0 0 0 128-128V85.333a128 128 0 0 0-128-128H640a42.667 42.667 0 1 0 0 85.334h170.667z" horiz-adv-x="1024"/><glyph glyph-name="icon_layer" unicode="" d="M897.877 640.725c80.64-24.576 80.64-138.752 0-163.285L549.291 371.328a128 128 0 0 0-74.582 0L126.165 477.44c-80.64 24.533-80.64 138.71 0 163.285l348.587 106.07a128 128 0 0 0 74.581 0l348.587-106.07zm-24.832-81.664L524.46 665.173a42.667 42.667 0 0 1-24.875 0l-348.63-106.112 348.587-106.069a42.667 42.667 0 0 1 24.875 0l348.63 106.07zm76.715-185.13a42.667 42.667 0 0 0-27.008-53.974L552.491 196.565a128 128 0 0 0-80.939 0L101.291 319.957a42.667 42.667 0 1 0 26.965 80.982l370.261-123.435a42.667 42.667 0 0 1 26.966 0l370.261 123.435a42.667 42.667 0 0 0 53.973-27.008zm0-176.512a42.667 42.667 0 0 0-27.008-53.974L552.491 20.011a128 128 0 0 0-80.982 0L101.248 143.445a42.667 42.667 0 1 0 27.008 80.939l370.261-123.435a42.667 42.667 0 0 1 26.966 0l370.261 123.435a42.667 42.667 0 0 0 53.973-27.008z" horiz-adv-x="1024"/><glyph glyph-name="icon_spsx-new1" unicode="" d="M128 384a64 64 0 1 0 128 0 64 64 0 0 0-128 0zm64 149.333a149.333 149.333 0 1 1 143.147-192h603.562a42.667 42.667 0 1 1 0 85.334H335.147A149.419 149.419 0 0 1 192 533.333zM351.317 512v43.35h67.414v167.765h-3.286l-50.858-66.688-34.432 26.88 59.861 78.848h82.432V555.349h53.035V512H351.317zm378.752 0H553.003v49.067l77.098 65.962c6.912 5.974 12.8 11.35 17.579 16.128 4.736 5.035 8.576 9.814 11.435 14.336 3.114 4.779 5.248 9.43 6.485 13.995 1.408 4.523 2.133 9.43 2.133 14.677v5.035a26.283 26.283 0 0 1-10.41 21.504 39.424 39.424 0 0 1-22.614 7.168 40.363 40.363 0 0 1-15.701-2.859 37.803 37.803 0 0 1-11.52-7.893 42.325 42.325 0 0 1-7.85-11.093 60.975 60.975 0 0 1-5.035-13.27l-46.934 17.92a104.25 104.25 0 0 0 11.819 24.32c5.035 7.936 11.221 14.72 18.645 20.48 7.68 5.974 16.64 10.624 26.88 13.952 10.24 3.371 21.846 5.035 34.774 5.035 13.61 0 25.685-1.92 36.181-5.76 10.539-3.84 19.37-9.045 26.539-15.787 7.381-6.656 13.013-14.677 16.853-23.978 3.84-9.088 5.717-18.987 5.717-29.739 0-10.752-1.792-20.565-5.376-29.397a102.912 102.912 0 0 0-14.72-25.088c-5.973-7.68-13.013-14.934-21.12-21.846-8.106-6.954-16.64-13.994-25.429-21.162l-46.635-36.566H730.07V512zm111.275 151.253c13.355 0 23.04 2.475 29.013 7.51a24.405 24.405 0 0 1 9.302 19.37v2.475a28.288 28.288 0 0 1-8.96 21.888c-5.718 5.504-13.952 8.235-24.747 8.235-9.984 0-19.456-2.646-28.288-7.894a65.579 65.579 0 0 1-22.57-21.845l-33.707 31.573c4.821 6.187 9.941 11.776 15.445 16.811 5.461 5.248 11.69 9.685 18.603 13.227a87.04 87.04 0 0 0 23.296 8.618 119.893 119.893 0 0 0 29.013 3.243c13.397 0 25.472-1.579 36.267-4.693 10.965-3.072 20.266-7.638 27.904-13.611 7.893-5.717 13.866-12.63 17.92-20.779 4.309-8.106 6.485-17.194 6.485-27.221 0-7.893-1.323-15.061-3.968-21.504a48.725 48.725 0 0 0-10.368-16.853 55.893 55.893 0 0 0-15.061-11.819 68.565 68.565 0 0 0-18.262-6.101v-2.134c7.382-1.45 14.208-3.84 20.395-7.168 6.443-3.114 11.947-7.168 16.512-12.202 4.779-5.035 8.448-11.008 11.093-17.92 2.646-6.699 3.968-14.336 3.968-22.955 0-11.221-2.304-21.333-6.826-30.464a67.03 67.03 0 0 0-19.371-23.296 93.653 93.653 0 0 0-30.08-15.019 140.587 140.587 0 0 0-38.699-5.034c-12.672 0-23.893 1.28-33.706 3.925a105.813 105.813 0 0 0-25.814 10.41 100.992 100.992 0 0 0-18.986 15.403 127.744 127.744 0 0 0-13.995 18.304l39.808 30.806c5.461-10.24 12.16-18.774 20.053-25.43 8.107-6.485 18.987-9.685 32.64-9.685 12.16 0 21.59 2.987 28.288 8.96a32 32 0 0 1 10.411 25.088v2.133c0 10.283-3.968 17.92-11.819 22.955-7.68 5.248-18.304 7.893-31.914 7.893h-22.614v44.8h23.339z" horiz-adv-x="1024"/><glyph glyph-name="a-icon_accountswitch" unicode="" d="M189.61 804.992A189.61 189.61 0 0 1 0 615.339V160.256A189.61 189.61 0 0 1 189.61-29.397h455.126a37.93 37.93 0 0 1 0 75.861H189.611A113.792 113.792 0 0 0 75.86 160.256v455.083a113.792 113.792 0 0 0 113.75 113.834h417.194a113.792 113.792 0 0 0 113.792-113.792v-37.93a37.93 37.93 0 0 1 75.862 0v37.973a189.61 189.61 0 0 1-189.654 189.61H189.611zm303.446-303.403a75.861 75.861 0 1 1-151.723 0 75.861 75.861 0 0 1 151.723 0zm75.819 0c0-38.826-14.592-74.24-38.571-101.12 25.6-12.074 49.024-28.16 69.333-47.36a37.93 37.93 0 0 0-52.138-55.125A189.61 189.61 0 0 1 227.54 160.256a37.93 37.93 0 0 0-75.818 0 265.515 265.515 0 0 0 152.32 240.213 151.723 151.723 0 1 0 264.832 101.12zm417.194-161.834H767.061l59.136 59.136a37.93 37.93 0 0 1-53.632 53.632L655.872 335.829a37.845 37.845 0 0 1-10.965-30.378 37.93 37.93 0 0 1 37.76-41.558h303.402a37.93 37.93 0 0 1 0 75.862zM1024 168.32a39.253 39.253 0 0 0-.17-3.627 37.845 37.845 0 0 0-10.923-30.378L896.213 17.62a37.93 37.93 0 1 0-53.674 53.632l59.136 59.136H682.667a37.93 37.93 0 1 0 0 75.862h303.402c20.95 0 37.931-16.982 37.931-37.931z" horiz-adv-x="1024"/><glyph glyph-name="icon_drawing" unicode="" d="M853.312 205.632v356.736a128 128 0 1 1-163.008 162.944H333.632a128 128 0 1 1-163.008-162.944V205.632A128 128 0 1 1 333.632 42.688h356.672a128 128 0 1 1 163.008 162.944zm-42.688 519.68a42.688 42.688 0 1 0 0-85.312 42.688 42.688 0 0 0 0 85.312zm-597.312 0a42.688 42.688 0 1 0 0-85.312 42.688 42.688 0 0 0 0 85.312zm0-682.624a42.624 42.624 0 1 0 0 85.248 42.624 42.624 0 0 0 0-85.248zM690.304 128H333.632A128 128 0 0 1 256 205.632v356.736A128 128 0 0 1 333.632 640h356.672A128.064 128.064 0 0 1 768 562.368V205.632A128 128 0 0 1 690.368 128zm120.32-85.312a42.688 42.688 0 1 0 0 85.312 42.688 42.688 0 0 0 0-85.312z" horiz-adv-x="1024"/><glyph glyph-name="a-icon_continuousdrawing" unicode="" d="M895.936 810.688h-512A42.688 42.688 0 0 1 341.248 768V597.312h-85.312a42.688 42.688 0 0 1-42.688-42.688V384h-85.312a42.688 42.688 0 0 1-42.688-42.688V0a42.688 42.688 0 0 1 42.688-42.688h341.312A42.688 42.688 0 0 1 511.936 0v85.312H682.56A42.688 42.688 0 0 1 725.248 128v85.312h170.688A42.688 42.688 0 0 1 938.56 256v512A42.688 42.688 0 0 1 896 810.688zm-469.376-768h-256v256h256v-256zm213.376 128h-128v170.56A42.688 42.688 0 0 1 469.248 384H298.56v128H640V170.624zm213.312 128h-128v256a42.688 42.688 0 0 1-42.688 42.624h-256v128h426.688V298.624z" horiz-adv-x="1024"/><glyph glyph-name="icon_help_circle_solid" unicode="" d="M512-85.333C771.2-85.333 981.333 124.8 981.333 384S771.2 853.333 512 853.333 42.667 643.2 42.667 384 252.8-85.333 512-85.333zm7.168 638.762a85.333 85.333 0 0 1-94.89-55.765 42.667 42.667 0 1 0-80.513 28.288 170.667 170.667 0 0 0 331.648-56.832c0-65.28-48.426-108.416-82.986-131.456a343.723 343.723 0 0 0-71.936-36.224l-1.494-.512-.426-.17-.214-.043h-.042l-.086-.043a42.667 42.667 0 0 0-27.008 80.939l.683.213a250.88 250.88 0 0 1 15.53 6.272c10.54 4.693 24.235 11.605 37.675 20.565 29.44 19.627 44.971 40.448 44.971 60.502v.042a85.333 85.333 0 0 1-70.912 84.224zm-53.675-382.976a42.667 42.667 0 0 0 42.667 42.667h.427a42.667 42.667 0 1 0 0-85.333h-.427a42.667 42.667 0 0 0-42.667 42.666z" horiz-adv-x="1024"/><glyph glyph-name="icon_bottom_right" unicode="" d="M620.245 215.339h-319.36a42.667 42.667 0 1 1 0-85.334H722.86a43.093 43.093 0 0 1 43.093 43.094v421.973a42.667 42.667 0 1 1-85.333 0V275.669L329.13 627.072c-15.616 15.659-41.814 14.805-58.454-1.877-16.64-16.64-17.493-42.838-1.92-58.454L620.203 215.34z" horiz-adv-x="1024"/><glyph glyph-name="icon_top_left" unicode="" d="M403.755 552.533h319.36a42.667 42.667 0 1 1 0 85.334H301.14a43.093 43.093 0 0 1-43.093-43.094V172.8a42.667 42.667 0 0 1 85.333 0v319.36l351.446-351.445c15.616-15.616 41.813-14.763 58.453 1.92 16.64 16.64 17.493 42.794 1.92 58.453L403.755 552.491z" horiz-adv-x="1024"/><glyph glyph-name="icon_top_right" unicode="" d="M680.576 492.16V172.8a42.667 42.667 0 1 1 85.333 0v421.973a43.093 43.093 0 0 1-43.093 43.094H300.843a42.667 42.667 0 1 1 0-85.334h319.402L268.8 201.045c-15.616-15.658-14.763-41.813 1.92-58.453 16.64-16.683 42.837-17.493 58.453-1.92l351.403 351.445z" horiz-adv-x="1024"/><glyph glyph-name="icon_bottom_left" unicode="" d="M343.424 275.627v319.445a42.667 42.667 0 0 1-85.333 0V173.099c0-23.766 19.285-43.094 43.093-43.094h421.973a42.667 42.667 0 1 1 0 85.334H403.712L755.2 566.784c15.616 15.616 14.763 41.813-1.92 58.453-16.64 16.64-42.837 17.494-58.453 1.878l-351.36-351.446z" horiz-adv-x="1024"/><glyph glyph-name="icon-compass" unicode="" d="M723.243 554.795a32 32 0 0 1-40.448 40.49l-271.36-90.453a32 32 0 0 1-20.267-20.267l-90.453-271.36a32 32 0 0 1 40.533-40.448l271.36 90.454a32 32 0 0 1 20.181 20.224l90.454 271.36zM381.696 253.696l65.152 195.456 195.456 65.152-65.152-195.413-195.456-65.195zM512 842.667C258.688 842.667 53.333 637.312 53.333 384S258.688-74.667 512-74.667 970.667 130.688 970.667 384 765.312 842.667 512 842.667zM117.333 384a394.667 394.667 0 1 0 789.334 0 394.667 394.667 0 0 0-789.334 0z" horiz-adv-x="1024"/><glyph glyph-name="icon_filter_pressed1" unicode="" d="M46.635 785.92a42.667 42.667 0 0 0 38.698 24.747h853.334a42.667 42.667 0 0 0 32.597-70.23L640 348.757V0a42.667 42.667 0 0 0-61.739-38.144L407.595 47.189A42.667 42.667 0 0 0 384 85.333v263.424L52.736 740.437a42.667 42.667 0 0 0-6.101 45.526z" horiz-adv-x="1024"/><glyph glyph-name="icon_sort_default1" unicode="" d="M465.579 790.57 230.656 539.99c-38.101-40.662-9.259-107.137 46.421-107.137h469.846c55.68 0 84.48 66.475 46.421 107.094L558.421 790.613a63.616 63.616 0 0 1-92.842 0zm91.818-815.829 230.187 204.63c46.933 41.728 17.45 119.381-45.355 119.381H281.771c-62.806 0-92.331-77.653-45.355-119.381L466.603-25.26c25.898-23.04 64.896-23.04 90.794 0z" horiz-adv-x="1024"/><glyph glyph-name="icon_add_solid" unicode="" d="M981.333 384C981.333 124.8 771.2-85.333 512-85.333S42.667 124.8 42.667 384 252.8 853.333 512 853.333 981.333 643.2 981.333 384zM512 128a42.667 42.667 0 0 1 42.667 42.667v170.666h170.666a42.667 42.667 0 1 1 0 85.334H554.667v170.666a42.667 42.667 0 1 1-85.334 0V426.667H298.667a42.667 42.667 0 1 1 0-85.334h170.666V170.667A42.667 42.667 0 0 1 512 128z" horiz-adv-x="1024"/><glyph glyph-name="icon_remove_solid" unicode="" d="M981.333 384C981.333 124.8 771.2-85.333 512-85.333S42.667 124.8 42.667 384 252.8 853.333 512 853.333 981.333 643.2 981.333 384zm-640 42.667a42.667 42.667 0 1 1 0-85.334h341.334a42.667 42.667 0 1 1 0 85.334H341.333z" horiz-adv-x="1024"/><glyph glyph-name="icon_coin_protect" unicode="" d="M840.619 641.024c8.277-2.133 12.8-9.088 12.714-15.573-.981-105.728-12.885-245.888-51.114-332.544C739.072 149.803 620.587 99.029 546.987 68.395l-1.579-.683c-10.752-4.437-23.125-9.6-33.408-14.677l-14.336 7.381h-.043c-71.21 36.48-193.834 100.395-273.322 232.832-21.931 36.565-35.2 92.8-43.051 153.43-7.85 60.586-10.24 125.397-10.581 178.773a16.299 16.299 0 0 0 12.714 15.573l319.062 83.072a37.973 37.973 0 0 0 19.114 0l319.062-83.072zm-329.6-683.69 38.485 19.029c7.808 3.84 18.133 8.149 30.293 13.226 75.35 31.403 222.806 92.843 300.502 268.886 45.909 104.106 57.386 259.84 58.368 366.208a101.547 101.547 0 0 1-76.544 98.901L543.06 806.699a123.307 123.307 0 0 1-62.122 0l-319.062-83.115a101.632 101.632 0 0 1-76.544-98.688c.342-55.04 2.816-123.69 11.307-189.184 8.107-62.677 22.997-133.845 54.485-186.368C244.14 94.336 386.86 21.291 458.752-15.531l14.208-7.296 38.059-19.84zm-41.686 256a42.667 42.667 0 1 1 85.334 0 42.667 42.667 0 1 1-85.334 0Zm42.667 384a42.667 42.667 0 0 0 42.667-42.667V341.333a42.667 42.667 0 1 0-85.334 0v213.334A42.667 42.667 0 0 0 512 597.333z" horiz-adv-x="1024"/><glyph glyph-name="a-icon_coin_ineffect" unicode="" d="M840.619 641.024c8.277-2.133 12.8-9.088 12.714-15.573-.981-105.728-12.885-245.888-51.114-332.544C739.072 149.803 620.587 99.029 546.987 68.395l-1.579-.683c-10.752-4.437-23.125-9.6-33.408-14.677l-14.336 7.381h-.043c-71.21 36.48-193.834 100.395-273.322 232.832-21.931 36.565-35.2 92.8-43.051 153.43-7.85 60.586-10.24 125.397-10.581 178.773a16.299 16.299 0 0 0 12.714 15.573l319.062 83.072a37.973 37.973 0 0 0 19.114 0l319.062-83.072zm-329.6-683.69 38.485 19.029c7.808 3.84 18.133 8.149 30.293 13.226 75.35 31.403 222.806 92.843 300.502 268.886 45.909 104.106 57.386 259.84 58.368 366.208a101.547 101.547 0 0 1-76.544 98.901L543.06 806.699a123.307 123.307 0 0 1-62.122 0l-319.062-83.115a101.632 101.632 0 0 1-76.544-98.688c.342-55.04 2.816-123.69 11.307-189.184 8.107-62.677 22.997-133.845 54.485-186.368C244.14 94.336 386.86 21.291 458.752-15.531l14.208-7.296 38.059-19.84zM712.02 542.975a42.667 42.667 0 0 0 1.622-60.33L511.317 269.311a42.667 42.667 0 0 0-61.909 0l-96.384 101.547a42.667 42.667 0 1 0 61.952 58.752l65.365-68.95 171.35 180.694a42.667 42.667 0 0 0 60.33 1.621z" horiz-adv-x="1024"/><glyph glyph-name="icon_alert_circle_solid" unicode="" d="M42.667 384C42.667 643.2 252.8 853.333 512 853.333S981.333 643.2 981.333 384 771.2-85.333 512-85.333 42.667 124.8 42.667 384zm426.666-213.333A42.667 42.667 0 0 1 512 128h.427a42.667 42.667 0 1 1 0 85.333H512a42.667 42.667 0 0 1-42.667-42.666zm85.334 426.666a42.667 42.667 0 1 1-85.334 0v-256a42.667 42.667 0 1 1 85.334 0v256z" horiz-adv-x="1024"/><glyph glyph-name="icon_alert_triangle_solid" unicode="" d="M461.227 780.501a57.77 57.77 0 0 0 101.546 0L973.397 47.915c22.571-40.278-5.632-90.582-50.773-90.582H101.376c-45.141 0-73.344 50.304-50.773 90.539l410.666 732.587zm8.106-695.168A42.667 42.667 0 0 1 512 42.667h.427a42.667 42.667 0 1 1 0 85.333H512a42.667 42.667 0 0 1-42.667-42.667zM554.667 512a42.667 42.667 0 1 1-85.334 0V256a42.667 42.667 0 1 1 85.334 0v256z" horiz-adv-x="1024"/><glyph glyph-name="icon_link" unicode="" d="M516.693 239.36 351.147 73.813a107.52 107.52 0 0 0-149.334 0 105.387 105.387 0 0 0 0 149.334L367.36 388.693a42.837 42.837 0 0 1-60.587 60.587L141.227 283.307a191.147 191.147 0 0 1 270.08-270.08L577.28 178.773a42.837 42.837 0 1 1-60.587 60.587zm366.08 515.413a191.573 191.573 0 0 1-270.08 0L446.72 589.227a42.837 42.837 0 1 1 60.587-60.587l165.546 165.547a107.52 107.52 0 0 0 149.334 0 105.387 105.387 0 0 0 0-149.334L656.64 379.307a42.539 42.539 0 0 1-9.344-46.72c2.133-5.163 5.333-9.899 9.344-13.867a42.667 42.667 0 0 1 60.587 0l165.546 165.973a191.573 191.573 0 0 1 0 270.08zM376.747 248.747a42.581 42.581 0 0 1 30.293-12.374 42.667 42.667 0 0 1 30.293 12.374l209.92 209.92a42.837 42.837 0 0 1-60.586 60.586l-209.92-209.92a42.624 42.624 0 0 1 0-60.586z" horiz-adv-x="1024"/><glyph glyph-name="icon_safety" unicode="" d="m549.547-23.637-38.528-19.03-38.059 19.84-14.25 7.296C386.858 21.291 244.138 94.336 151.124 249.344c-31.488 52.523-46.378 123.733-54.485 186.368-8.49 65.493-10.965 134.144-11.307 189.184a101.632 101.632 0 0 0 76.544 98.73l319.062 83.115a123.307 123.307 0 0 0 62.122 0l319.062-83.114a101.547 101.547 0 0 0 76.544-98.944c-.982-106.368-12.459-262.144-58.368-366.208C802.645 82.432 655.147 20.992 579.84-10.368c-12.203-5.12-22.528-9.387-30.293-13.227zM485.248 247.85l249.301 255.701a42.667 42.667 0 1 1-61.098 59.563L453.29 337.323 349.44 436.224a42.667 42.667 0 1 1-58.88-61.781L424.661 246.74c17.067-16.298 44.118-15.786 60.587 1.11z" horiz-adv-x="1024"/><glyph glyph-name="icon_cex_home" unicode="" d="M469.333 746.667a405.333 405.333 0 1 0 0-810.667 405.333 405.333 0 0 0 0 810.667zm0 64C210.133 810.667 0 600.533 0 341.333S210.133-128 469.333-128 938.667 82.133 938.667 341.333 728.533 810.667 469.333 810.667zM272.94 249.045c9.898-3.882 20.992-5.845 33.237-5.845 16.64 0 30.592 3.84 41.728 11.435a82.773 82.773 0 0 1 26.88 32.426l-28.459 16.768a48.64 48.64 0 0 0-14.634-20.992c-6.571-5.674-15.062-8.533-25.515-8.533-13.141 0-23.595 4.267-31.403 12.8-7.594 8.661-11.434 21.077-11.434 37.205v29.227c0 16 3.84 28.373 11.434 37.248 7.808 8.875 18.262 13.312 31.403 13.312 10.453 0 18.688-2.56 24.747-7.723a41.43 41.43 0 0 0 13.013-19.925l30.037 15.915c-6.57 14.378-15.36 25.088-26.325 32.213-10.965 7.083-24.832 10.624-41.472 10.624-12.245 0-23.339-2.133-33.28-6.4-9.728-4.267-18.133-10.539-25.216-18.859-6.912-8.149-12.245-18.346-15.957-30.592-3.755-12.074-5.59-25.898-5.59-41.472 0-15.616 1.835-29.354 5.547-41.216 3.755-11.69 9.088-21.546 16-29.525 7.083-7.979 15.488-13.995 25.259-18.09zM404.736 432V246.4h122.325v31.104h-87.253v47.36h77.141v31.104h-77.141v44.928h87.253v31.147H404.736zm307.03-185.6h-40.96l-42.54 71.253h-.81L585.472 246.4h-38.315l60.118 95.19-57.472 90.453h40.96l39.381-65.963h.768L670.805 432h38.315l-57.984-90.41 60.63-95.19zm275.2 260.992a21.333 21.333 0 0 0-36.48 22.101 213.333 213.333 0 0 1-289.153 295.254A21.333 21.333 0 1 0 640 861.696a256 256 0 0 0 346.965-354.304z" horiz-adv-x="1024"/><glyph glyph-name="icon_web3_home1" unicode="" d="M554.667 21.333a405.333 405.333 0 1 0 0 810.667 405.333 405.333 0 0 0 0-810.667zm0-64c259.2 0 469.333 210.134 469.333 469.334S813.867 896 554.667 896 85.333 685.867 85.333 426.667 295.467-42.667 554.667-42.667zm89.258 563.2h-37.802V331.605h37.802v22.443h1.28a35.03 35.03 0 0 1 12.758-18.347c3.2-2.218 6.826-3.925 10.709-5.12 3.925-1.365 8.107-2.048 12.501-2.048 17.067 0 29.867 5.974 38.571 17.878 8.661 12.074 13.013 29.525 13.013 52.309 0 22.827-4.352 40.192-13.013 52.096-8.704 11.947-21.547 17.92-38.57 17.92a39.552 39.552 0 0 1-23.211-7.168 31.573 31.573 0 0 1-12.8-18.39h-1.28v77.355zm42.368-153.941a23.04 23.04 0 0 0-17.621-7.424 29.995 29.995 0 0 0-17.877 5.12 17.493 17.493 0 0 0-6.87 14.507v39.594c0 6.144 2.262 10.923 6.87 14.294a28.97 28.97 0 0 0 17.877 5.376 22.613 22.613 0 0 0 17.621-7.68c4.779-4.907 7.168-11.648 7.168-20.139v-23.253c0-8.534-2.389-15.318-7.168-20.438zm-408.746-34.219-40.32 178.219h38.314l16.854-85.547 9.429-49.536h.768l11.221 49.494 19.67 85.546h42.368l19.925-85.504 10.965-49.536h.768l9.472 49.494 17.067 85.546h36.821l-41.386-178.176h-44.16l-22.486 96.512-8.661 39.04h-.768l-8.96-39.04-22.443-96.512H277.59zm249.13-3.072c-10.24 0-19.328 1.622-27.306 4.864a59.99 59.99 0 0 0-20.48 14.038 62.976 62.976 0 0 0-12.459 22.186 97.024 97.024 0 0 0-4.096 29.099c0 10.581 1.365 20.096 4.096 28.587 2.73 8.704 6.699 16.128 11.99 22.229 5.46 6.144 12.074 10.837 19.925 14.08 7.808 3.413 16.768 5.12 26.794 5.12 11.094 0 20.48-1.92 28.331-5.675 8.021-3.712 14.507-8.746 19.413-15.061 5.12-6.272 8.79-13.61 10.966-21.93 2.389-8.193 3.584-16.769 3.584-25.814v-11.221h-86.059v-2.048c0-8.832 2.39-15.915 7.168-21.163 4.779-5.12 12.245-7.68 22.485-7.68a35.84 35.84 0 0 1 19.158 4.608c4.906 3.2 9.514 7.04 13.781 11.477l18.859-23.466c-5.974-6.998-13.782-12.459-23.467-16.384a85.376 85.376 0 0 0-32.683-5.846zm-.768 112.342c-7.68 0-13.696-2.56-18.133-7.68-4.267-4.907-6.4-11.563-6.4-19.883v-2.048h47.019v2.261a31.744 31.744 0 0 1-5.632 19.67c-3.584 5.12-9.216 7.68-16.854 7.68zm275.627-1.536c9.557 0 16.47 1.792 20.693 5.376a17.408 17.408 0 0 1 6.656 13.781v1.792a20.139 20.139 0 0 1-6.4 15.573c-4.096 3.883-9.941 5.846-17.621 5.846a38.827 38.827 0 0 1-20.139-5.59 46.677 46.677 0 0 1-16.085-15.573l-24.021 22.443c3.413 4.437 7.082 8.448 10.965 11.989 3.925 3.755 8.363 6.912 13.27 9.472 4.949 2.73 10.495 4.779 16.64 6.101 6.1 1.536 13.013 2.304 20.65 2.304 9.557 0 18.133-1.109 25.813-3.285 7.808-2.219 14.464-5.461 19.883-9.728a40.79 40.79 0 0 0 12.8-14.805 40.832 40.832 0 0 0 4.565-19.414 40.235 40.235 0 0 0-20.906-35.712 48.768 48.768 0 0 0-13.056-4.352v-1.536c5.29-1.024 10.154-2.73 14.549-5.12 4.608-2.218 8.533-5.12 11.776-8.661 3.413-3.584 6.016-7.85 7.893-12.8 1.878-4.736 2.816-10.197 2.816-16.341 0-7.979-1.621-15.19-4.864-21.675a47.744 47.744 0 0 0-13.781-16.64c-5.973-4.565-13.099-8.107-21.419-10.667a100.267 100.267 0 0 0-27.605-3.584c-9.003 0-17.024.939-23.979 2.816a75.179 75.179 0 0 0-18.389 7.382 72.107 72.107 0 0 0-13.525 10.965 90.752 90.752 0 0 0-9.984 13.056l28.373 21.93c3.883-7.295 8.661-13.354 14.293-18.133 5.76-4.565 13.526-6.869 23.211-6.869 8.704 0 15.403 2.133 20.181 6.4a22.827 22.827 0 0 1 7.424 17.835v1.536c0 7.338-2.816 12.8-8.448 16.341-5.418 3.755-13.013 5.632-22.698 5.632H784.98v31.915h16.598zm-727.979-201.6a21.333 21.333 0 0 1-36.48 22.101A256 256 0 0 1 384-93.696a21.333 21.333 0 0 1-21.333 36.95A213.333 213.333 0 0 0 73.515 238.506z" horiz-adv-x="1024"/><glyph glyph-name="icon_recurringbuy" unicode="" d="M725.333 768A42.667 42.667 0 1 1 640 768v-42.667H384V768a42.667 42.667 0 0 1-85.333 0v-42.667h-85.334a128 128 0 0 1-128-128v-512a128 128 0 0 1 128-128h597.334a128 128 0 0 1 128 128v512a128 128 0 0 1-128 128h-85.334V768zM298.667 597.333a42.667 42.667 0 0 1 85.333 0V640h256v-42.667a42.667 42.667 0 1 1 85.333 0V640h85.334a42.667 42.667 0 0 0 42.666-42.667v-512a42.667 42.667 0 0 0-42.666-42.666H213.333a42.667 42.667 0 0 0-42.666 42.666v512A42.667 42.667 0 0 0 213.333 640h85.334v-42.667zm448-256a64 64 0 1 1-63.915 60.416L579.584 298.581a65.835 65.835 0 0 1-7.125 0l-82.219 82.176a64 64 0 1 1-127.147 0l-82.218-82.176a64 64 0 1 1 60.33-60.33l85.462 85.376 85.418-85.419a64 64 0 1 1 127.787 0l103.253 103.168 3.542-.085z" horiz-adv-x="1024"/><glyph glyph-name="icon_thumbs_down" unicode="" d="M810.667 810.667H267.52a128 128 0 0 1-125.867-104.96L87.467 407.04A128 128 0 0 1 213.333 256h194.56L384 194.987A176.213 176.213 0 0 1 549.973-42.667 42.667 42.667 0 0 1 588.8-17.493L710.4 256h100.267a128 128 0 0 1 128 128v298.667a128 128 0 0 1-128 128zM640 307.627 523.947 46.507a90.88 90.88 0 0 0-58.88 118.613l22.613 61.013a85.333 85.333 0 0 1-79.787 115.2h-194.56a42.667 42.667 0 0 0-32.853 15.36 42.667 42.667 0 0 0-9.813 34.987l54.186 298.667a42.667 42.667 0 0 0 42.667 34.986H640V307.627zM853.333 384a42.667 42.667 0 0 0-42.666-42.667h-85.334v384h85.334a42.667 42.667 0 0 0 42.666-42.666V384z" horiz-adv-x="1024"/><glyph glyph-name="icon_thumbs_up" unicode="" d="M908.8 465.92A128 128 0 0 1 810.667 512h-194.56L640 573.013a176.213 176.213 0 0 1-165.973 237.654 42.667 42.667 0 0 1-38.827-25.174L313.6 512H213.333a128 128 0 0 1-128-128V85.333a128 128 0 0 1 128-128H756.48a128 128 0 0 1 125.867 104.96l54.186 298.667A128 128 0 0 1 908.8 465.92zM298.667 42.667h-85.334a42.667 42.667 0 0 0-42.666 42.666V384a42.667 42.667 0 0 0 42.666 42.667h85.334v-384zM853.333 376.32 799.147 77.653a42.667 42.667 0 0 0-42.667-34.986H384v417.706l116.053 261.12a90.027 90.027 0 0 0 58.88-118.613l-22.613-61.013a85.333 85.333 0 0 1 79.787-115.2h194.56a42.667 42.667 0 0 0 32.853-15.36 42.667 42.667 0 0 0 9.813-34.987z" horiz-adv-x="1024"/><glyph glyph-name="icon_remove" unicode="" d="M512-42.667c235.648 0 426.667 191.019 426.667 426.667S747.648 810.667 512 810.667 85.333 619.648 85.333 384 276.352-42.667 512-42.667zM853.333 384a341.333 341.333 0 1 0-682.666 0 341.333 341.333 0 0 0 682.666 0zm-512 42.667a42.667 42.667 0 1 1 0-85.334h341.334a42.667 42.667 0 1 1 0 85.334H341.333z" horiz-adv-x="1024"/><glyph glyph-name="icon_transmitter" unicode="" d="M860.587 502.187 263.253 748.8A128 128 0 0 1 92.587 590.933L158.293 384 90.88 177.067a128 128 0 0 1 34.56-134.4 128 128 0 0 1 85.333-34.134c16.854 0 33.536 3.328 49.067 9.814L859.307 264.96a128 128 0 0 1 0 236.373l1.28.854zM228.693 98.133a42.667 42.667 0 0 0-45.226 8.107 42.667 42.667 0 0 0-11.52 42.667l62.293 192.426h585.813l-591.36-243.2zm5.547 328.534-63.573 190.72a42.667 42.667 0 0 0 11.52 42.666 42.667 42.667 0 0 0 47.786 9.814l590.08-243.2H234.24z" horiz-adv-x="1024"/><glyph glyph-name="a-icon_fiatdeposit" unicode="" d="M170.667 384A341.333 341.333 0 0 0 568.96 720.64a42.667 42.667 0 0 1 14.08 84.139 429.355 429.355 0 0 1-71.04 5.888C276.352 810.667 85.333 619.648 85.333 384S276.352-42.667 512-42.667 938.667 148.352 938.667 384c0 24.192-2.006 47.915-5.888 71.04a42.667 42.667 0 0 1-84.182-14.08A341.333 341.333 0 1 0 170.667 384zM640 682.667a42.667 42.667 0 1 1 0-85.334h85.333V512a42.667 42.667 0 1 1 85.334 0v85.333H896a42.667 42.667 0 1 1 0 85.334h-85.333V768a42.667 42.667 0 1 1-85.334 0v-85.333H640zM554.667 608a42.667 42.667 0 1 1-85.334 0v-37.333a111.701 111.701 0 0 1-79.402-34.006 115.712 115.712 0 0 1-32.598-80.64c0-30.037 11.606-59.093 32.598-80.64a111.701 111.701 0 0 1 80.085-34.048h83.968c6.87 0 13.696-2.773 18.944-8.149a30.379 30.379 0 0 0 8.405-21.163c0-8.192-3.157-15.786-8.405-21.205a26.368 26.368 0 0 0-18.944-8.15H427.989a42.667 42.667 0 0 1 0-85.333h41.344V160a42.667 42.667 0 1 1 85.334 0v37.333a111.701 111.701 0 0 1 79.402 34.006 115.712 115.712 0 0 1 32.598 80.64c0 30.037-11.606 59.093-32.598 80.64a111.701 111.701 0 0 1-80.085 34.048h-83.968a26.368 26.368 0 0 0-18.944 8.149 30.379 30.379 0 0 0-8.405 21.163c0 8.192 3.157 15.786 8.405 21.205a26.368 26.368 0 0 0 18.944 8.15h125.995a42.667 42.667 0 0 1 0 85.333h-41.344V608z" horiz-adv-x="1024"/><glyph glyph-name="icon_resource" unicode="" d="M715.093 768H308.907a128.085 128.085 0 0 1-114.56-70.997v-.043L47.573 403.84A42.496 42.496 0 0 1 42.667 384V128a128 128 0 0 1 128-128h682.666a128 128 0 0 1 128 128v257.621a42.496 42.496 0 0 1-4.906 18.262L829.653 696.96v.043A128 128 0 0 1 715.093 768zm154.454-341.333h-186.88a42.667 42.667 0 0 1-35.499-18.987l-72.661-109.013H449.493L376.832 407.68a42.667 42.667 0 0 1-35.499 18.987h-186.88l116.224 232.192L256 661.333l14.763-2.346a42.667 42.667 0 0 0 38.144 23.68h406.186a42.667 42.667 0 0 0 38.144-23.68l.086-.128 116.224-232.192zM128 341.333h190.507l72.661-109.013a42.667 42.667 0 0 1 35.499-18.987h170.666a42.667 42.667 0 0 1 35.499 18.987l72.661 109.013H896V128a42.667 42.667 0 0 0-42.667-42.667H170.667A42.667 42.667 0 0 0 128 128v213.333z" horiz-adv-x="1024"/><glyph glyph-name="icon_upcoming" unicode="" d="M512 768a384 384 0 0 1-384-384 382.72 382.72 0 0 1 115.2-274.219l-59.733-60.928A468.053 468.053 0 0 0 42.667 384C42.667 643.2 252.8 853.333 512 853.333V768zm0 85.333c15.53 0 30.848-.768 45.995-2.218l-8.278-84.907A389.12 389.12 0 0 1 512.085 768v85.333zm136.32-20.096a468.376 468.376 0 0 0 85.035-35.242l-40.278-75.264a381.44 381.44 0 0 1-69.546 28.842l24.746 81.664zm161.493-86.442a472.984 472.984 0 0 0 65.024-65.024l-65.92-54.187a386.56 386.56 0 0 1-53.29 53.29l54.186 65.92zm116.182-141.483a465.505 465.505 0 0 0 35.285-85.035l-81.664-24.746a381.525 381.525 0 0 1-28.843 69.504l75.222 40.277zm53.162-175.36a474.837 474.837 0 0 0 0-91.904l-84.906 8.235a390.101 390.101 0 0 1 0 75.434l84.906 8.235zm-17.92-182.187a461.552 461.552 0 0 0-35.242-85.077l-75.222 40.277a382.002 382.002 0 0 1 28.843 69.547l81.664-24.747zm-86.4-161.536a472.405 472.405 0 0 0-65.024-65.024l-54.186 65.92a386.56 386.56 0 0 1 53.29 53.291l65.92-54.187zM217.472 18.603c-11.819 9.557-23.168 19.626-33.963 30.25l59.734 60.928c8.874-8.704 18.133-16.981 27.818-24.746l-53.589-66.432zm515.84-48.598c-26.88-14.378-55.296-26.24-84.992-35.242l-24.747 81.664a381.61 381.61 0 0 1 69.504 28.8l40.278-75.179zm-355.84-35.754a466.347 466.347 0 0 0-84.139 34.389l39.808 75.52A379.96 379.96 0 0 1 401.877 16l-24.405-81.75zm180.523-17.366a473.387 473.387 0 0 0-91.307-.042l8.107 84.906a388.48 388.48 0 0 1 74.922.086l8.278-84.907zm-3.328 637.782a42.667 42.667 0 1 1-85.334 0V341.333A42.667 42.667 0 0 1 512 298.667h170.667a42.667 42.667 0 1 1 0 85.333h-128v170.667z" horiz-adv-x="1024"/><glyph glyph-name="icon_IM" unicode="" d="M42.667 633.344c0 99.03 73.6 177.323 162.133 177.323h614.4c88.533 0 162.133-78.294 162.133-177.323V134.656c0-99.03-73.6-177.323-162.133-177.323H204.8c-88.533 0-162.133 78.294-162.133 177.323v498.688zm85.333 0V134.656c0-46.08 34.39-83.456 76.8-83.456h614.4c42.41 0 76.8 37.376 76.8 83.456v498.688c0 46.08-34.39 83.456-76.8 83.456H204.8c-42.41 0-76.8-37.376-76.8-83.456zM446.677 532.48h100.651l69.248-185.6h3.456l69.248 185.6h100.693V204.8h-79.146v189.44h-2.347l-66.347-186.88h-47.701l-66.304 188.16h-2.347V204.8H446.72v327.68zM234.667 204.8v56.79h44.416v214.143h-44.416v56.747h163.84v-56.79H354.09v-214.1h44.416V204.8h-163.84z" horiz-adv-x="1024"/><glyph glyph-name="icon_broken" unicode="" d="M203.093 444.16a43.008 43.008 0 1 1 11.094 85.333l-75.094 18.774a42.667 42.667 0 1 1-22.186-82.347L192 445.867a33.323 33.323 0 0 1 11.093-1.707zm164.694 238.507a42.667 42.667 0 0 1 42.666-31.574 34.987 34.987 0 0 1 11.094 0 42.667 42.667 0 0 1 29.866 52.054L431.36 778.24a42.667 42.667 0 1 1-82.347-22.187l18.774-73.386zM573.867 256A42.667 42.667 0 0 1 512 256L362.667 104.107a94.293 94.293 0 0 0-130.56 0 91.733 91.733 0 0 0 0 130.56L384 384a42.667 42.667 0 1 1-60.16 60.16L170.667 295.253A178.603 178.603 0 1 1 423.253 42.667L573.867 193.28a42.667 42.667 0 0 1 0 62.72zM221.013 614.827a42.667 42.667 0 0 1 60.16 0 42.667 42.667 0 0 1 0 60.16l-55.04 55.04a42.667 42.667 0 0 1-60.16-60.16l55.04-55.04zm686.08-312.747L832 322.133a42.667 42.667 0 1 1-21.333-82.346l75.093-20.054h11.093a43.008 43.008 0 1 1 11.094 85.334l-.854-2.987zM656.213 85.333a42.667 42.667 0 0 1-82.346-22.186l20.053-75.094a42.667 42.667 0 0 1 42.667-31.573 48.231 48.231 0 0 1 11.093 0 42.795 42.795 0 0 1 30.293 52.48l-21.76 76.373zm146.774 66.987a42.667 42.667 0 0 1-60.16-60.16l55.04-55.04a42.667 42.667 0 0 1 60.16 0 42.667 42.667 0 0 1 0 60.16l-55.04 55.04zm101.546 445.013a177.493 177.493 0 0 1-303.786 128L450.133 573.44A43.605 43.605 0 0 1 512 512l149.333 151.893a94.293 94.293 0 0 0 130.56 0 91.733 91.733 0 0 0 0-130.56L640 384a42.667 42.667 0 0 1 0-60.16 42.667 42.667 0 0 1 60.16 0l153.173 148.907a178.773 178.773 0 0 1 51.2 124.586z" horiz-adv-x="1024"/><glyph glyph-name="icon_vip" unicode="" d="M742.315 650.539a106.555 106.555 0 0 0 87.125-45.184l131.584-186.71a106.581 106.581 0 0 0-18.347-142.805L580.736-29.653a106.539 106.539 0 0 0-137.472 0L81.365 275.84A106.539 106.539 0 0 0 63.02 418.645l131.541 186.71a106.539 106.539 0 0 0 87.125 45.226h112L352 759.936l102.827-35.968L512 832l57.173-107.99L672 759.98l-41.685-109.44h112zm-460.63-85.078a21.419 21.419 0 0 1-17.536-9.13L132.565 369.62a21.419 21.419 0 0 1 3.712-28.757L498.176 35.371a21.461 21.461 0 0 1 27.648 0l361.899 305.493c8.533 7.168 10.112 19.627 3.712 28.757L759.85 556.331a21.461 21.461 0 0 1-17.494 9.13H281.643zm106.411-94.89L512 272.299 635.904 470.57a42.581 42.581 0 0 0 72.192-45.142L564.352 195.456a61.781 61.781 0 0 0-104.704 0L315.904 425.429a42.581 42.581 0 0 0 72.192 45.184z" horiz-adv-x="1024"/><glyph glyph-name="icon_circle" unicode="" d="M512 853.333C252.8 853.333 42.667 643.2 42.667 384S252.8-85.333 512-85.333 981.333 124.8 981.333 384 771.2 853.333 512 853.333zm222.55-392.448L485.247 205.184a43.093 43.093 0 0 0-60.587-1.11L290.56 331.777a42.667 42.667 0 1 0 58.88 61.781l103.85-98.901 220.16 225.792a42.667 42.667 0 1 0 61.1-59.563z" horiz-adv-x="1024"/><glyph glyph-name="icon_comment" unicode="" d="M512 512a42.667 42.667 0 1 1 0-85.333A42.667 42.667 0 0 1 512 512zm298.667 298.667H213.333a128 128 0 0 1-128-128V256a128 128 0 0 1 128-128H707.84L865.707-30.293A42.667 42.667 0 0 1 896-42.667a35.84 35.84 0 0 1 16.213 3.414A42.667 42.667 0 0 1 938.667 0v682.667a128 128 0 0 1-128 128zm42.666-707.84-97.706 98.133a42.667 42.667 0 0 1-30.294 12.373h-512A42.667 42.667 0 0 0 170.667 256v426.667a42.667 42.667 0 0 0 42.666 42.666h597.334a42.667 42.667 0 0 0 42.666-42.666v-579.84zM341.333 512a42.667 42.667 0 1 1 0-85.333 42.667 42.667 0 0 1 0 85.333zm341.334 0a42.667 42.667 0 1 1 0-85.333 42.667 42.667 0 0 1 0 85.333z" horiz-adv-x="1024"/><glyph glyph-name="icon_gift" unicode="" d="M514.603 724.565C546.432 782.421 605.61 853.333 704 853.333A149.333 149.333 0 0 0 838.912 640h99.755a42.667 42.667 0 0 0 42.666-42.667V384a42.667 42.667 0 0 0-42.666-42.667H896v-384a42.667 42.667 0 0 0-42.667-42.666H170.667A42.667 42.667 0 0 0 128-42.667v384H85.333A42.667 42.667 0 0 0 42.667 384v213.333A42.667 42.667 0 0 0 85.333 640h99.755A149.333 149.333 0 0 0 320 853.333c98.39 0 157.568-70.912 189.397-128.768l2.603-4.821 2.603 4.821zm-45.27-169.898H128v-128h341.333v128zM454.571 640a350.208 350.208 0 0 1-19.968 43.435C407.765 732.245 370.944 768 320 768a64 64 0 0 1 0-128h134.57zm294.698 18.773A64 64 0 0 1 704 768c-50.944 0-87.765-35.755-114.603-84.565A350.208 350.208 0 0 1 569.43 640H704a64 64 0 0 1 45.227 18.773zM554.667 426.667H896v128H554.667v-128zm0-426.667h256v341.333h-256V0zm-85.334 341.333h-256V0h256v341.333z" horiz-adv-x="1024"/><glyph glyph-name="icon_rm" unicode="" d="M42.667 633.344c0 99.03 73.6 177.323 162.133 177.323h614.4c88.533 0 162.133-78.294 162.133-177.323V134.656c0-99.03-73.6-177.323-162.133-177.323H204.8c-88.533 0-162.133 78.294-162.133 177.323v498.688zm85.333 0V134.656c0-46.08 34.39-83.456 76.8-83.456h614.4c42.41 0 76.8 37.376 76.8 83.456v498.688c0 46.08-34.39 83.456-76.8 83.456H204.8c-42.41 0-76.8-37.376-76.8-83.456zm361.259-105.643h100.693l69.205-185.6h3.499l69.248 185.6h100.65v-327.68h-79.146v189.44h-2.304l-66.347-186.88h-47.701l-66.347 188.16h-2.304v-190.72H489.26v327.68zm-34.219-122.88h-82.005a66.176 66.176 0 0 1-4.694 20.31 46.08 46.08 0 0 1-25.728 25.941 55.467 55.467 0 0 1-20.778 3.67c-13.568 0-25.088-3.627-34.475-10.88-9.301-7.254-16.384-17.665-21.248-31.19-4.736-13.568-7.125-29.824-7.125-48.81 0-20.054 2.432-36.865 7.253-50.39 4.95-13.44 12.075-23.595 21.419-30.421 9.301-6.699 20.48-10.07 33.578-10.07 7.467 0 14.166 1.024 20.054 3.03a45.91 45.91 0 0 1 26.026 23.381c2.859 5.632 4.736 11.99 5.718 19.03l82.005-.64a131.84 131.84 0 0 0-10.581-42.411 138.325 138.325 0 0 0-26.027-39.68c-11.179-12.032-25.003-21.76-41.472-29.099-16.512-7.381-35.627-11.05-57.472-11.05-27.307 0-51.883 6.442-73.6 19.37-21.632 12.885-38.741 31.872-51.328 56.96-12.501 25.045-18.773 55.723-18.773 91.99 0 36.48 6.4 67.2 19.2 92.16 12.8 25.087 30.08 43.989 51.797 56.789a139.648 139.648 0 0 0 72.704 19.37c18.816 0 36.139-2.816 51.925-8.49 15.787-5.632 29.696-13.91 41.6-24.79 11.947-10.752 21.547-24.064 28.8-39.85 7.254-15.787 11.691-33.835 13.227-54.23z" horiz-adv-x="1024"/><glyph glyph-name="icon_withdraw" unicode="" d="M128 298.667A42.667 42.667 0 0 0 170.667 256V85.333a42.667 42.667 0 0 1 42.666-42.666h597.334a42.667 42.667 0 0 1 42.666 42.666V256a42.667 42.667 0 1 0 85.334 0V85.333a128 128 0 0 0-128-128H213.333a128 128 0 0 0-128 128V256A42.667 42.667 0 0 0 128 298.667zM268.501 524.5a42.667 42.667 0 0 1 60.331 0l140.501 140.502V256a42.667 42.667 0 1 1 85.334 0v409.003L695.168 524.5a42.667 42.667 0 1 1 60.33 60.331L542.166 798.165A42.496 42.496 0 0 1 512 810.667m-.427 0a42.539 42.539 0 0 1-29.738-12.502L268.5 584.832a42.667 42.667 0 0 1 0-60.33" horiz-adv-x="1024"/><glyph glyph-name="icon_buy" unicode="" d="M128 42.667A85.333 85.333 0 0 0 42.667 128v512A85.333 85.333 0 0 0 128 725.333h768A85.333 85.333 0 0 0 981.333 640V128A85.333 85.333 0 0 0 896 42.667H128zM128 128h768v512H128V128zm128 85.333a42.667 42.667 0 1 0 0 85.334h128a42.667 42.667 0 1 0 0-85.334H256zm405.333 312.448a85.333 85.333 0 1 1 0-112.896 85.333 85.333 0 1 1 0 112.896z" horiz-adv-x="1024"/><glyph glyph-name="icon_transferassets" unicode="" d="M776.96 213.333 636.501 72.832a42.667 42.667 0 0 1 60.331-60.33l213.333 213.333-2.901 1.194c9.557 7.595 15.403 17.792 15.403 28.971 0 23.552-25.942 42.667-57.899 42.667h-694.87c-32 0-57.898-19.115-57.898-42.667s25.941-42.667 57.899-42.667h607.104zM398.208 695.168 257.707 554.667H864.81c32 0 57.898-19.115 57.898-42.667s-25.941-42.667-57.898-42.667H169.899c-32 0-57.899 19.115-57.899 42.667 0 11.179 5.845 21.333 15.36 28.97l-2.859 1.195L337.835 755.5a42.667 42.667 0 0 0 60.33-60.331z" horiz-adv-x="1024"/><glyph glyph-name="icon_deposit" unicode="" d="M656 825.856a85.333 85.333 0 0 0 99.243-63.317l43.52-176.598a42.539 42.539 0 0 0-4.352-31.274h16.256A85.333 85.333 0 0 0 896 469.333V325.888h16.47a42.667 42.667 0 1 0 0-85.333H896V42.667a85.333 85.333 0 0 0-85.333-85.334H213.333A85.333 85.333 0 0 0 128 42.667V317.61a42.453 42.453 0 0 0-11.05 20.522L55.082 619.435a85.333 85.333 0 0 0 66.986 102.101L656 825.856zm154.667-499.968v143.445H213.333V42.667h597.334v197.888H616.576l42.581-41.643a42.667 42.667 0 0 0-59.69-61.013l-150.614 147.37 152.662 131.115a42.667 42.667 0 0 0 55.552-64.81l-29.995-25.729h183.595zm-94.72 239.659L672.427 742.1 138.41 637.781l22.272-101.29c14.506 11.392 32.81 18.176 52.65 18.176h506.88a42.837 42.837 0 0 0-4.309 10.88z" horiz-adv-x="1024"/><glyph glyph-name="icon_assets_more" unicode="" d="M512 42.667c-188.672 0-341.333 152.661-341.333 341.333 0 188.672 152.661 341.333 341.333 341.333 188.672 0 341.333-152.661 341.333-341.333 0-188.672-152.661-341.333-341.333-341.333zm0-85.334c235.776 0 426.667 190.891 426.667 426.667S747.776 810.667 512 810.667 85.333 619.776 85.333 384 276.224-42.667 512-42.667zm0 469.334a42.667 42.667 0 1 1 0-85.334 42.667 42.667 0 0 1 0 85.334zm-170.667 0a42.667 42.667 0 1 1 0-85.334 42.667 42.667 0 0 1 0 85.334zm341.334 0a42.667 42.667 0 1 1 0-85.334 42.667 42.667 0 0 1 0 85.334z" horiz-adv-x="1024"/><glyph glyph-name="icon_bot" unicode="" d="M298.667 810.667A42.667 42.667 0 0 1 256 768v-27.52A149.675 149.675 0 0 1 155.52 640H128a42.667 42.667 0 0 1 0-85.333h27.52A149.675 149.675 0 0 1 256 454.187V313.813a149.675 149.675 0 0 1-100.48-100.48H128A42.667 42.667 0 1 1 128 128h27.52A149.675 149.675 0 0 1 256 27.52V0a42.667 42.667 0 1 1 85.333 0v27.52A149.675 149.675 0 0 1 441.813 128h140.374a149.675 149.675 0 0 1 100.48-100.48V0A42.667 42.667 0 1 1 768 0v27.52A149.675 149.675 0 0 1 868.48 128H896a42.667 42.667 0 1 1 0 85.333h-27.52A149.675 149.675 0 0 1 768 313.813v140.374a149.675 149.675 0 0 1 100.48 100.48H896A42.667 42.667 0 1 1 896 640h-27.52A149.675 149.675 0 0 1 768 740.48V768a42.667 42.667 0 1 1-85.333 0v-27.52A149.675 149.675 0 0 1 582.187 640H441.813a149.675 149.675 0 0 1-100.48 100.48V768a42.667 42.667 0 0 1-42.666 42.667zm42.666-356.48a149.675 149.675 0 0 1 100.48 100.48h140.374a149.675 149.675 0 0 1 100.48-100.48V313.813a149.675 149.675 0 0 1-100.48-100.48H441.813a149.675 149.675 0 0 1-100.48 100.48v140.374zm-42.666-219.52a64 64 0 1 0 0-128 64 64 0 0 0 0 128zm362.666-64a64 64 0 1 0 128 0 64 64 0 0 0-128 0zm64 490.666a64 64 0 1 0 0-128 64 64 0 0 0 0 128zm-490.666-64a64 64 0 1 0 128 0 64 64 0 0 0-128 0z" horiz-adv-x="1024"/><glyph glyph-name="icon_batch" unicode="" d="M341.333 768A42.667 42.667 0 0 0 384 810.667h256a42.667 42.667 0 1 0 0-85.334H384A42.667 42.667 0 0 0 341.333 768zM256 682.667a42.667 42.667 0 0 1 0-85.334h512a42.667 42.667 0 1 1 0 85.334H256zm0-128A170.667 170.667 0 0 1 85.333 384V128A170.667 170.667 0 0 1 256-42.667h512A170.667 170.667 0 0 1 938.667 128v256A170.667 170.667 0 0 1 768 554.667H256zM170.667 384A85.333 85.333 0 0 0 256 469.333h512A85.333 85.333 0 0 0 853.333 384V128A85.333 85.333 0 0 0 768 42.667H256A85.333 85.333 0 0 0 170.667 128v256zm490.922-72.832a42.667 42.667 0 0 1-60.33 60.33L482.133 252.332 422.7 311.765a42.667 42.667 0 0 1-60.331-60.33l89.6-89.6a42.667 42.667 0 0 1 60.33 0l149.334 149.333z" horiz-adv-x="1024"/><glyph glyph-name="icon_filter" unicode="" d="M46.635 785.92a42.667 42.667 0 0 0 38.698 24.747h853.334a42.667 42.667 0 0 0 32.597-70.23L640 348.757V0a42.667 42.667 0 0 0-61.739-38.144L407.595 47.189A42.667 42.667 0 0 0 384 85.333v263.424L52.736 740.437a42.667 42.667 0 0 0-6.101 45.526zm130.645-60.587 281.984-333.397a42.667 42.667 0 0 0 10.07-27.563V111.701l85.333-42.666v295.338a42.667 42.667 0 0 0 10.069 27.563L846.72 725.333H177.28z" horiz-adv-x="1024"/><glyph glyph-name="icon_coupon" unicode="" d="M149.333 682.667a64 64 0 0 1-64-64v-128c0-37.12 29.227-59.563 54.272-65.28 22.059-5.078 35.712-22.998 35.712-41.387 0-18.39-13.653-36.31-35.712-41.387-25.045-5.674-54.272-28.16-54.272-65.28v-128a64 64 0 0 1 64-64h768a64 64 0 0 1 64 64v149.248c0 23.638-19.2 42.752-42.752 42.752-28.416 0-47.402 21.248-47.402 42.667s18.986 42.667 47.36 42.667c23.68 0 42.794 19.114 42.794 42.752v149.248a64 64 0 0 1-64 64h-768zm21.334-177.494v92.16h182.485v-17.792a42.667 42.667 0 0 1 85.333 0v17.792H896v-92.16c-51.456-16.81-90.155-63.445-90.155-121.173S844.544 279.637 896 262.827v-92.16H438.485v17.792a42.667 42.667 0 1 1-85.333 0v-17.792H170.667v92.16C221.824 279.637 260.65 326.4 260.65 384s-38.827 104.363-89.984 121.173zm267.818-50.048a42.667 42.667 0 1 1-85.333 0V330.667a42.667 42.667 0 1 1 85.333 0v124.458z" horiz-adv-x="1066"/><glyph glyph-name="icon_web3_assets" unicode="" d="M170.667 810.667a128 128 0 0 1-128-128V85.333a128 128 0 0 1 128-128h682.666a128 128 0 0 1 128 128v597.334a128 128 0 0 1-128 128H170.667zM896 512H746.667a149.333 149.333 0 1 1 0-298.667H896v-128a42.667 42.667 0 0 0-42.667-42.666H170.667A42.667 42.667 0 0 0 128 85.333v597.334a42.667 42.667 0 0 0 42.667 42.666h682.666A42.667 42.667 0 0 0 896 682.667V512zm0-213.333H746.667a64 64 0 0 0 0 128H896v-128z" horiz-adv-x="1024"/><glyph glyph-name="icon_web3_dapps" unicode="" d="M927.317 509.44a85.333 85.333 0 0 1 0 120.661L791.552 765.867a85.333 85.333 0 0 1-120.661 0L535.125 630.1a85.333 85.333 0 0 1 0-120.661l135.766-135.765a85.333 85.333 0 0 1 120.661 0L927.317 509.44zM731.221 705.536l135.766-135.765L731.22 434.005 595.456 569.771l135.765 135.765zm-560.554 57.301a85.333 85.333 0 0 1-85.334-85.333v-192a85.333 85.333 0 0 1 85.334-85.333h163.882A113.45 113.45 0 0 1 448 513.579v163.968a85.333 85.333 0 0 1-85.333 85.333h-192zm0-85.333h192V513.579a28.117 28.117 0 0 0-28.118-28.075H170.667v192zm0-715.05a85.333 85.333 0 0 0-85.334 85.333v192a85.333 85.333 0 0 0 85.334 85.333h163.882A113.45 113.45 0 0 0 448 211.67V47.786a85.333 85.333 0 0 0-85.333-85.334h-192zm0 85.333h192v163.882a28.117 28.117 0 0 1-28.118 28.118H170.667v-192zM800.34-37.547a85.333 85.333 0 0 1 85.334 85.334v192a85.333 85.333 0 0 1-85.334 85.333H636.46a113.45 113.45 0 0 1-113.494-113.45V47.786A85.333 85.333 0 0 1 608.3-37.547h192zm0 85.334h-192v163.882c0 15.531 12.587 28.118 28.118 28.118h163.84v-192z" horiz-adv-x="1024"/><glyph glyph-name="icon_web3_rank" unicode="" d="M170.667 810.667a128 128 0 0 1-128-128V85.333a128 128 0 0 1 128-128h682.666a128 128 0 0 1 128 128v597.334a128 128 0 0 1-128 128H170.667zm-42.667-128a42.667 42.667 0 0 0 42.667 42.666h682.666A42.667 42.667 0 0 0 896 682.667V85.333a42.667 42.667 0 0 0-42.667-42.666H170.667A42.667 42.667 0 0 0 128 85.333v597.334zM682.667 512A42.667 42.667 0 1 0 768 512V256a42.667 42.667 0 1 0-85.333 0v256zM512 469.333a42.667 42.667 0 0 1-42.667-42.666V256a42.667 42.667 0 1 1 85.334 0v170.667A42.667 42.667 0 0 1 512 469.333zM298.667 384A42.667 42.667 0 0 1 256 341.333V256a42.667 42.667 0 1 1 85.333 0v85.333A42.667 42.667 0 0 1 298.667 384z" horiz-adv-x="1024"/><glyph glyph-name="icon_web3_home" unicode="" d="M559.787 812.459a85.333 85.333 0 0 1-96.683-.043L100.907 563.115A85.333 85.333 0 0 1 64 492.8V25.899a85.333 85.333 0 0 1 85.333-85.334h725.419A85.333 85.333 0 0 1 960.085 25.9V492.8a85.333 85.333 0 0 1-37.034 70.315L559.787 812.459zM511.488 742.1 874.709 492.8V25.899H149.333V492.8l362.24 249.301 24.107 35.2-24.15-35.2zM362.667 256a42.667 42.667 0 1 1 0-85.333h298.666a42.667 42.667 0 1 1 0 85.333H362.667z" horiz-adv-x="1024"/><glyph glyph-name="icon_web3_swap" unicode="" d="M128 384a384 384 0 1 0 768 0 384 384 0 0 0-768 0zm384 469.333C252.8 853.333 42.667 643.2 42.667 384S252.8-85.333 512-85.333 981.333 124.8 981.333 384 771.2 853.333 512 853.333zm187.563-437.077a10.667 10.667 0 0 1 7.509 18.219L554.667 586.667v-85.334H341.333a42.667 42.667 0 0 1 0-85.333h256c1.579 0 3.158.085 4.694.256h97.536zm-373.931-74.923a10.667 10.667 0 0 1-7.253-18.432l150.954-141.568V256h213.334a42.667 42.667 0 1 1 0 85.333H325.632z" horiz-adv-x="1024"/><glyph glyph-name="icon_setting" unicode="" d="M719.53 702.933a42.752 42.752 0 0 1-37.034 21.547H341.504a42.611 42.611 0 0 1-37.035-21.547L133.973 405.547c-7.68-13.355-7.68-29.782 0-43.094L304.47 65.067c7.638-13.355 21.76-21.547 37.035-21.547h340.992a42.611 42.611 0 0 1 37.035 21.547l170.496 297.386c7.68 13.355 7.68 29.782 0 43.094L719.53 702.933zM230.4 746.027a128.213 128.213 0 0 0 111.104 64.64h340.992c45.867 0 88.235-24.619 111.147-64.64L964.139 448.64a130.048 130.048 0 0 0 0-129.28L793.643 21.973a128.213 128.213 0 0 0-111.147-64.64H341.504A128.213 128.213 0 0 0 230.4 21.973L59.904 319.36a130.048 130.048 0 0 0 0 129.28L230.4 746.027zm195.243-361.174c0 47.574 38.314 86.187 85.546 86.187 47.275 0 85.59-38.613 85.59-86.187 0-47.616-38.315-86.186-85.59-86.186a85.888 85.888 0 0 0-85.546 86.186zm85.546 172.374c-94.506 0-171.136-77.184-171.136-172.374S416.683 212.48 511.19 212.48s171.136 77.184 171.136 172.373-76.629 172.374-171.093 172.374z" horiz-adv-x="1024"/><glyph glyph-name="icon_adddec" unicode="" d="M234.667 426.667a42.667 42.667 0 1 1 85.333 0v106.666h106.667a42.667 42.667 0 1 1 0 85.334H320v106.666a42.667 42.667 0 1 1-85.333 0V618.667H128a42.667 42.667 0 0 1 0-85.334h106.667V426.667zm320-320a42.667 42.667 0 0 0 42.666 42.666H896A42.667 42.667 0 1 0 896 64H597.333a42.667 42.667 0 0 0-42.666 42.667zm-353.835 8.832a42.667 42.667 0 1 1 60.33-60.331l537.003 537.003a42.667 42.667 0 0 1-60.33 60.33L200.832 115.5z" horiz-adv-x="1024"/><glyph glyph-name="icon_calculator" unicode="" d="M128 661.333A170.667 170.667 0 0 0 298.667 832h426.666A170.667 170.667 0 0 0 896 661.333V106.667A170.667 170.667 0 0 0 725.333-64H298.667A170.667 170.667 0 0 0 128 106.667v554.666zm170.667 85.334a85.333 85.333 0 0 1-85.334-85.334V106.667a85.333 85.333 0 0 1 85.334-85.334h426.666a85.333 85.333 0 0 1 85.334 85.334v554.666a85.333 85.333 0 0 1-85.334 85.334H298.667zm0-149.334A85.333 85.333 0 0 0 384 682.667h256a85.333 85.333 0 0 0 85.333-85.334V512A85.333 85.333 0 0 0 640 426.667H384A85.333 85.333 0 0 0 298.667 512v85.333zm341.333 0H384V512h256v85.333zM384 298.667a42.667 42.667 0 1 0-85.333 0 42.667 42.667 0 0 0 85.333 0zm170.667 0a42.667 42.667 0 1 0-85.334 0 42.667 42.667 0 0 0 85.334 0zm128-42.667a42.667 42.667 0 1 1 0 85.333 42.667 42.667 0 0 1 0-85.333zM384 149.333a42.667 42.667 0 1 0-85.333 0 42.667 42.667 0 0 0 85.333 0zm128-42.666A42.667 42.667 0 1 1 512 192a42.667 42.667 0 0 1 0-85.333zm213.333 42.666a42.667 42.667 0 1 0-85.333 0 42.667 42.667 0 0 0 85.333 0z" horiz-adv-x="1024"/><glyph glyph-name="icon_rate" unicode="" d="M153.6 384c0-198.101 160.299-358.4 358.4-358.4 198.101 0 358.4 160.299 358.4 358.4 0 198.101-160.299 358.4-358.4 358.4A358.187 358.187 0 0 1 153.6 384zm806.4 0c0-247.595-200.405-448-448-448S64 136.405 64 384s200.405 448 448 448 448-200.405 448-448zM591.36 232.32a29.653 29.653 0 1 0 59.307 0 29.653 29.653 0 0 0-59.307 0zm29.61 93.653a93.653 93.653 0 1 1 0-187.306 93.653 93.653 0 0 1 0 187.306zm-217.983 239.36a29.653 29.653 0 1 1 0-59.306 29.653 29.653 0 0 1 0 59.306zm-93.654-29.653a93.653 93.653 0 1 0 187.307 0 93.653 93.653 0 0 0-187.307 0zm.768-282.325c-19.669-19.67-22.144-49.152-5.504-65.835 16.683-16.64 46.166-14.208 65.878 5.504l340.949 340.992c19.712 19.67 22.187 49.152 5.547 65.835-16.683 16.64-46.166 14.208-65.878-5.547L310.101 253.397z" horiz-adv-x="1024"/><glyph glyph-name="icon_informationdisclosure" unicode="" d="M426.667 554.667h256a42.667 42.667 0 1 1 0 85.333h-256a42.667 42.667 0 0 1 0-85.333zM341.333 384h341.334a42.667 42.667 0 0 1 0 85.333H341.333a42.667 42.667 0 0 1 0-85.333zm0-170.667h341.334a42.667 42.667 0 0 1 0 85.334H341.333a42.667 42.667 0 0 1 0-85.334zm512 597.334H170.667A42.667 42.667 0 0 1 128 768V0a42.667 42.667 0 0 1 68.267-34.133L284.587 32l87.893-66.133a42.667 42.667 0 0 1 51.2 0L512 32l88.32-66.133a42.667 42.667 0 0 1 51.2 0L739.413 32l88.32-66.133A42.667 42.667 0 0 1 889.6-22.315 42.667 42.667 0 0 1 896 0v768a42.667 42.667 0 0 1-42.667 42.667zM810.667 85.333l-45.654 34.134a42.667 42.667 0 0 1-51.2 0L625.92 53.333l-88.32 66.134a42.667 42.667 0 0 1-51.2 0l-88.32-66.134-87.893 66.134a42.667 42.667 0 0 1-51.2 0l-45.654-34.134v640h597.334v-640z" horiz-adv-x="1024"/><glyph glyph-name="icon_togglechart" unicode="" d="M213.333 725.333a42.667 42.667 0 0 1-42.666-42.666V85.333a42.667 42.667 0 0 1 42.666-42.666h597.334a42.667 42.667 0 0 1 42.666 42.666v597.334a42.667 42.667 0 0 1-42.666 42.666H213.333zm-128-42.666a128 128 0 0 0 128 128h597.334a128 128 0 0 0 128-128V85.333a128 128 0 0 0-128-128H213.333a128 128 0 0 0-128 128v597.334zM896 341.333H128v85.334h768v-85.334zM469.333 0v768h85.334V0h-85.334z" horiz-adv-x="1024"/><glyph glyph-name="icon_copytrading" unicode="" d="M238.933 588.843a341.461 341.461 0 0 0 608.64-142.08 42.667 42.667 0 1 1 83.926 15.573C894.677 660.566 720.896 810.666 512 810.666a425.941 425.941 0 0 1-339.072-167.68l-3.157 18.945a42.667 42.667 0 0 1-84.182-14.08l20.822-124.416a42.667 42.667 0 0 1 49.109-35.072l124.459 20.821a42.667 42.667 0 1 1-14.08 84.181l-26.923-4.522zm-50.048-315.136a42.667 42.667 0 1 1-80.768-27.563C165.42 78.208 324.523-42.666 512-42.666c121.088 0 230.4 50.517 308.01 131.413l2.049-20.694a42.667 42.667 0 0 1 84.906 8.448l-12.501 125.867a42.667 42.667 0 0 1-46.72 38.23L721.92 228.052a42.667 42.667 0 1 1 8.448-84.906l26.027 2.56a341.504 341.504 0 0 0-567.51 128zm122.027-10.24a42.667 42.667 0 0 0-42.667 42.666A170.667 170.667 0 0 0 438.912 476.8a42.667 42.667 0 1 0 0-85.333 85.333 85.333 0 0 1-73.941-42.667h47.274l.256-.341a42.667 42.667 0 0 0-5.589-84.95h-96zm170.667 282.709a58.667 58.667 0 1 0-117.334 0 58.667 58.667 0 0 0 117.334 0zm192-32a58.667 58.667 0 1 0-117.334 0 58.667 58.667 0 0 0 117.334 0zm-213.334-224a154.667 154.667 0 0 0 309.334 0v-16a42.667 42.667 0 0 0-42.667-42.667h-224a42.667 42.667 0 0 0-42.667 42.667v15.957zm218.667 26.667a69.376 69.376 0 0 1-128 0h128z" horiz-adv-x="1024"/><glyph glyph-name="icon_user" unicode="" d="M512 0c99.328 0 189.867 37.717 258.005 99.584a266.795 266.795 0 0 1-516.01 0A382.592 382.592 0 0 1 512 0zm133.035 357.973A353.28 353.28 0 0 0 833.92 174.592a384 384 0 1 1-643.84 0 353.28 353.28 0 0 0 188.885 183.424 195.541 195.541 0 1 0 266.07 0zM981.333 384c0-120.192-45.184-229.845-119.466-312.875l-1.494-1.621-.981-1.067a472.107 472.107 0 0 0-83.115-72.362A467.2 467.2 0 0 0 512-85.333 467.2 467.2 0 0 0 240.299 1.28a471.979 471.979 0 0 0-78.166 69.803A467.584 467.584 0 0 0 42.667 384C42.667 643.2 252.8 853.333 512 853.333S981.333 643.2 981.333 384zM622.208 501.333a110.208 110.208 0 1 1-220.416 0 110.208 110.208 0 0 1 220.416 0z" horiz-adv-x="1024"/><glyph glyph-name="icon_quickjump" unicode="" d="M764.587 613.547a42.667 42.667 0 0 1-23.04 23.04A42.667 42.667 0 0 1 725.333 640H298.667a42.667 42.667 0 0 1 0-85.333h323.84L268.373 200.96a42.667 42.667 0 0 1 13.867-69.93 42.667 42.667 0 0 1 46.72 9.343l353.707 354.134v-323.84a42.667 42.667 0 0 1 85.333 0v426.666a42.539 42.539 0 0 1-3.413 16.214z" horiz-adv-x="1024"/><glyph glyph-name="icon_originalorder" unicode="" d="M277.333 661.333h8.875a106.667 106.667 0 0 1 97.792-64h213.333a106.667 106.667 0 0 1 97.792 64H704A85.333 85.333 0 0 0 789.333 576V462.208a42.667 42.667 0 1 1 85.334 0V576A170.667 170.667 0 0 1 704 746.667h-8.875a106.667 106.667 0 0 1-97.792 64H384a106.667 106.667 0 0 1-97.792-64h-8.875A170.667 170.667 0 0 1 106.667 576V106.667A170.667 170.667 0 0 1 277.333-64h128a42.667 42.667 0 1 1 0 85.333h-128A85.333 85.333 0 0 0 192 106.667V576a85.333 85.333 0 0 0 85.333 85.333zm106.667 64h213.333a21.333 21.333 0 0 0 0-42.666H384a21.333 21.333 0 0 0 0 42.666zM277.333 490.667A42.667 42.667 0 0 0 320 533.333h341.333a42.667 42.667 0 1 0 0-85.333H320a42.667 42.667 0 0 0-42.667 42.667zM320 320a42.667 42.667 0 1 1 0-85.333h64A42.667 42.667 0 1 1 384 320h-64zm366.933 0a153.6 153.6 0 1 1 0-307.2 153.6 153.6 0 0 1 0 307.2zm-230.4-153.6a230.4 230.4 0 1 0 460.8 0 230.4 230.4 0 0 0-460.8 0zm220.8 96a38.4 38.4 0 0 0 38.4-38.4v-56.235l40.534-27.008A38.4 38.4 0 0 0 713.6 76.843l-57.6 38.4a38.4 38.4 0 0 0-17.067 31.957V224a38.4 38.4 0 0 0 38.4 38.4z" horiz-adv-x="1024"/><glyph glyph-name="icon_strategyhistory" unicode="" d="M554.667 166.4a153.6 153.6 0 1 0 307.2 0 153.6 153.6 0 0 0-307.2 0zm153.6 230.4a230.4 230.4 0 1 1 0-460.8 230.4 230.4 0 0 1 0 460.8zm28.8-172.8a38.4 38.4 0 1 1-76.8 0v-76.8c0-12.8 6.4-24.832 17.066-31.957l57.6-38.4a38.4 38.4 0 1 1 42.667 63.914l-40.533 27.008V224zM85.333 640A170.667 170.667 0 0 0 256 810.667h426.667A170.667 170.667 0 0 0 853.333 640V512A42.667 42.667 0 1 0 768 512v128a85.333 85.333 0 0 1-85.333 85.333H256A85.333 85.333 0 0 1 170.667 640V128A85.333 85.333 0 0 1 256 42.667h128a42.667 42.667 0 1 0 0-85.334H256A170.667 170.667 0 0 0 85.333 128v512zm587.435-112.64a42.667 42.667 0 1 1-65.536 54.613l-79.019-94.72-116.48 99.84a42.667 42.667 0 0 1-60.586-5.12l-106.667-128a42.667 42.667 0 0 1 65.579-54.613l79.061 94.72 116.48-99.84a42.667 42.667 0 0 1 60.587 5.12l106.666 128z" horiz-adv-x="1024"/><glyph glyph-name="icon_import" unicode="" d="M786.944 588.373a298.88 298.88 0 0 1-486.699 90.88 298.837 298.837 0 0 1-83.882-171.52A170.837 170.837 0 0 1 142.89 213.76a170.837 170.837 0 0 1 113.621-42.923 42.667 42.667 0 1 1 0 85.376 85.419 85.419 0 0 0 0 170.795 42.667 42.667 0 0 1 42.71 42.667A213.419 213.419 0 0 0 622.207 652.5a213.461 213.461 0 0 0 92.587-114.048 42.667 42.667 0 0 1 33.28-28.586 128.128 128.128 0 0 0 79.701-201.387c-17.067-23.381-41.557-40.277-69.461-48a42.795 42.795 0 0 1 21.333-82.773A213.547 213.547 0 0 1 897.707 509.78a213.504 213.504 0 0 1-110.763 78.592zm-243.84-216.49a42.667 42.667 0 0 1-14.08 8.96c-10.41 4.266-22.101 4.266-32.47 0a42.667 42.667 0 0 1-14.08-8.96l-128.17-128.086a42.88 42.88 0 1 1 60.672-60.586l55.083 55.466V.043a42.667 42.667 0 1 1 85.418 0v238.634l55.083-55.466a42.752 42.752 0 0 1 69.973 13.866 42.624 42.624 0 0 1-9.344 46.72L543.104 371.883z" horiz-adv-x="1024"/><glyph glyph-name="icon_extend" unicode="" d="M256 810.667A170.667 170.667 0 0 1 85.333 640V128A170.667 170.667 0 0 1 256-42.667h512A170.667 170.667 0 0 1 938.667 128v512A170.667 170.667 0 0 1 768 810.667H256zM170.667 640A85.333 85.333 0 0 0 256 725.333h512A85.333 85.333 0 0 0 853.333 640V128A85.333 85.333 0 0 0 768 42.667H256A85.333 85.333 0 0 0 170.667 128v512zM512 597.333a42.667 42.667 0 0 0 42.667-42.666v-128h128a42.667 42.667 0 1 0 0-85.334h-128v-128a42.667 42.667 0 1 0-85.334 0v128h-128a42.667 42.667 0 1 0 0 85.334h128v128A42.667 42.667 0 0 0 512 597.333z" horiz-adv-x="1024"/><glyph glyph-name="icon_lock" unicode="" d="M341.333 554.667V512h341.334v42.667a170.667 170.667 0 0 1-341.334 0zM256 512v42.667a256 256 0 1 0 512 0V512h42.667a128 128 0 0 0 128-128V85.333a128 128 0 0 0-128-128H213.333a128 128 0 0 0-128 128V384a128 128 0 0 0 128 128H256zm-42.667-85.333A42.667 42.667 0 0 1 170.667 384V85.333a42.667 42.667 0 0 1 42.666-42.666h597.334a42.667 42.667 0 0 1 42.666 42.666V384a42.667 42.667 0 0 1-42.666 42.667H213.333zm341.334-197.035v-58.965a42.667 42.667 0 1 0-85.334 0v58.965a64 64 0 1 0 85.334 0z" horiz-adv-x="1024"/><glyph glyph-name="icon_mail" unicode="" d="M213.333 725.333a128 128 0 0 1-128-128V170.667a128 128 0 0 1 128-128h597.334a128 128 0 0 1 128 128v426.666a128 128 0 0 1-128 128H213.333zm-42.666-138.666 315.477-236.63c15.36-11.477 36.395-11.477 51.712 0l315.477 236.63v-416A42.667 42.667 0 0 0 810.667 128H213.333a42.667 42.667 0 0 0-42.666 42.667v416zM782.208 640 512 437.333 241.792 640h540.416z" horiz-adv-x="1024"/><glyph glyph-name="icon_arrowmore" unicode="" d="M883.499 225.835a42.667 42.667 0 0 1 0 60.33L670.165 499.5a42.667 42.667 0 1 1-60.33-60.331l140.501-140.501h-451.67A85.333 85.333 0 0 0 213.334 384v341.333a42.667 42.667 0 0 1-85.333 0V384a170.667 170.667 0 0 1 170.667-170.667h451.669L609.835 72.832a42.667 42.667 0 0 1 60.33-60.33L883.5 225.834z" horiz-adv-x="1024"/><glyph glyph-name="icon_stratrgyorder" unicode="" d="M341.333 661.333a85.333 85.333 0 0 0 85.334 85.334h218.581a85.333 85.333 0 0 0 59.221-23.894l122.752-118.4a85.333 85.333 0 0 0 26.112-61.44V256A85.333 85.333 0 0 0 768 170.667H426.667A85.333 85.333 0 0 0 341.333 256v405.333zM426.667 832A170.667 170.667 0 0 1 256 661.333 170.667 170.667 0 0 1 85.333 490.667v-384A170.667 170.667 0 0 1 256-64h302.507a166.827 166.827 0 0 1 165.93 149.333H768A170.667 170.667 0 0 1 938.667 256v286.933a170.667 170.667 0 0 1-52.224 122.88l-122.71 118.358A170.667 170.667 0 0 1 645.205 832H426.667zM638.123 85.333a81.536 81.536 0 0 0-79.616-64H256a85.333 85.333 0 0 0-85.333 85.334v384A85.333 85.333 0 0 0 256 576V256A170.667 170.667 0 0 1 426.667 85.333h211.456zm-168.79 405.334a42.667 42.667 0 1 0 0 85.333H640a42.667 42.667 0 1 0 0-85.333H469.333zm-42.666-128A42.667 42.667 0 0 1 469.333 320h256a42.667 42.667 0 1 1 0 85.333h-256a42.667 42.667 0 0 1-42.666-42.666z" horiz-adv-x="1024"/><glyph glyph-name="icon_empty" unicode="" d="M512-85.333C771.2-85.333 981.333 124.8 981.333 384S771.2 853.333 512 853.333 42.667 643.2 42.667 384 252.8-85.333 512-85.333zM353.835 542.165a42.667 42.667 0 0 0 60.33 0L512 444.331l97.835 97.834a42.667 42.667 0 1 0 60.33-60.33L572.331 384l97.834-97.835a42.667 42.667 0 0 0-60.33-60.33L512 323.669l-97.835-97.834a42.667 42.667 0 0 0-60.33 60.33L451.669 384l-97.834 97.835a42.667 42.667 0 0 0 0 60.33z" horiz-adv-x="1024"/><glyph glyph-name="icon_moon" unicode="" d="M487.595 794.155a42.667 42.667 0 0 0 5.546-42.88A298.667 298.667 0 0 1 873.9 354.9 42.667 42.667 0 0 0 930.9 306.86C892.843 110.208 719.787-38.315 512-38.315c-235.648 0-426.667 191.062-426.667 426.667 0 213.76 157.099 390.699 362.112 421.845a42.667 42.667 0 0 0 40.15-16.042zm-96.598-86.486a341.333 341.333 0 1 1 435.115-453.034A384 384 0 0 0 391.04 707.669z" horiz-adv-x="1024"/><glyph glyph-name="icon_fold" unicode="" d="M298.667 384a42.667 42.667 0 0 0 42.666 42.667h341.334a42.667 42.667 0 1 0 0-85.334H341.333A42.667 42.667 0 0 0 298.667 384zM85.333 640A170.667 170.667 0 0 0 256 810.667h512A170.667 170.667 0 0 0 938.667 640V128A170.667 170.667 0 0 0 768-42.667H256A170.667 170.667 0 0 0 85.333 128v512zM256 725.333A85.333 85.333 0 0 1 170.667 640V128A85.333 85.333 0 0 1 256 42.667h512A85.333 85.333 0 0 1 853.333 128v512A85.333 85.333 0 0 1 768 725.333H256z" horiz-adv-x="1024"/><glyph glyph-name="icon_sun" unicode="" d="M512 896a42.667 42.667 0 0 0 42.667-42.667V768a42.667 42.667 0 1 0-85.334 0v85.333A42.667 42.667 0 0 0 512 896zm362.112-149.888a42.667 42.667 0 0 0 0-60.33l-60.587-60.587a42.667 42.667 0 1 0-60.33 60.33l60.586 60.587a42.667 42.667 0 0 0 60.331 0zM341.333 384a170.667 170.667 0 1 0 341.334 0 170.667 170.667 0 0 0-341.334 0zM512 640a256 256 0 1 1 0-512 256 256 0 0 1 0 512zM0 384a42.667 42.667 0 0 0 42.667 42.667H128a42.667 42.667 0 1 0 0-85.334H42.667A42.667 42.667 0 0 0 0 384zm896 42.667a42.667 42.667 0 1 1 0-85.334h85.333a42.667 42.667 0 1 1 0 85.334H896zM270.805 142.805a42.667 42.667 0 0 0 0-60.33L210.22 21.888a42.667 42.667 0 0 0-60.331 60.33l60.587 60.587a42.667 42.667 0 0 0 60.33 0zm482.39 0a42.667 42.667 0 0 0 60.33 0l60.587-60.586a42.667 42.667 0 0 0-60.33-60.331l-60.587 60.587a42.667 42.667 0 0 0 0 60.33zM210.219 746.112a42.667 42.667 0 0 1-60.331-60.33l60.587-60.587a42.667 42.667 0 0 1 60.33 60.33l-60.586 60.587zM554.667 0a42.667 42.667 0 1 1-85.334 0v-85.333a42.667 42.667 0 1 1 85.334 0V0z" horiz-adv-x="1024"/><glyph glyph-name="icon_highindex" unicode="" d="M512 725.333a426.667 426.667 0 0 1-369.493-640A42.837 42.837 0 0 1 216.747 128a337.92 337.92 0 0 0-46.08 170.667A341.333 341.333 0 1 0 807.68 128a42.667 42.667 0 1 1 73.813-42.667 426.667 426.667 0 0 1-369.493 640zm121.173-245.76-66.133-65.706a124.16 124.16 0 0 1-55.04 12.8 128 128 0 1 1 128-128 123.733 123.733 0 0 1-12.8 54.613l66.133 65.707a42.752 42.752 0 0 1-30.08 72.96 42.667 42.667 0 0 1-30.08-12.374zM512 256a42.667 42.667 0 0 0 0 85.333 42.667 42.667 0 0 0 29.867-11.946 42.667 42.667 0 0 0 12.8-30.72A42.667 42.667 0 0 0 512 256z" horiz-adv-x="1024"/><glyph glyph-name="icon_lowindex" unicode="" d="M512 725.333a426.667 426.667 0 0 0 369.493-640A42.795 42.795 0 0 0 807.253 128a337.92 337.92 0 0 1 46.08 170.667A341.333 341.333 0 1 1 216.32 128a42.667 42.667 0 1 0-73.813-42.667 426.667 426.667 0 0 0 369.493 640zm-121.173-245.76 66.133-65.706a124.16 124.16 0 0 0 55.04 12.8 128 128 0 1 0-128-128 123.733 123.733 0 0 0 12.8 54.613l-66.133 65.707a42.667 42.667 0 1 0 60.16 60.586zM512 256a42.667 42.667 0 0 1 0 85.333 42.667 42.667 0 0 1-29.867-11.946 42.752 42.752 0 0 1-12.8-30.72A42.667 42.667 0 0 1 512 256z" horiz-adv-x="1024"/><glyph glyph-name="icon_usdc" unicode="" d="M917.333 384a405.333 405.333 0 1 0-810.666 0 405.333 405.333 0 0 0 810.666 0zM512-85.333C771.2-85.333 981.333 124.8 981.333 384S771.2 853.333 512 853.333 42.667 643.2 42.667 384 252.8-85.333 512-85.333zm101.675 817.92a22.741 22.741 0 0 1-20.95-2.944 23.552 23.552 0 0 1-9.088-19.328V682.41a29.44 29.44 0 0 1 4.992-15.787 27.435 27.435 0 0 1 12.886-10.795c108.032-40.448 185.258-146.688 185.258-271.445 0-124.373-77.525-230.955-185.173-271.403-11.563-4.053-17.92-15.53-17.92-26.624V58.453c0-7.722 2.901-14.848 8.875-19.328 5.973-4.522 13.653-5.29 21.077-2.986l.085.042C757.931 83.5 861.867 221.44 861.867 384.768c0 162.859-103.894 301.227-248.192 347.776zM431.488 729.6c5.93-4.437 8.875-11.605 8.875-19.285V682.41a29.44 29.44 0 0 0-4.992-15.787 27.477 27.477 0 0 0-12.886-10.795C314.453 614.997 237.227 508.416 237.227 384c0-124.8 77.226-230.997 185.258-271.445 5.547-2.091 9.942-6.315 12.886-10.795a29.44 29.44 0 0 0 4.992-15.787V57.685c0-7.808-3.115-14.933-9.088-19.328a22.741 22.741 0 0 0-20.992-2.901C266.069 82.731 162.133 220.715 162.133 384c0 162.901 103.936 301.227 248.15 348.587h.085a22.912 22.912 0 0 0 21.077-2.987zm49.835-132.224c0 12.715 10.154 23.424 23.04 23.424h29.013c12.885 0 23.04-10.71 23.04-23.424v-40.277c21.59-4.95 39.936-14.08 54.315-27.478 15.957-14.89 26.624-34.645 31.829-58.794a22.101 22.101 0 0 0-21.76-26.71h-30.464a22.955 22.955 0 0 0-21.973 16.939c-3.755 12.8-9.814 21.205-18.091 26.624-8.533 5.547-20.352 8.533-36.821 8.533-17.92 0-30.379-4.437-38.187-10.88a32.64 32.64 0 0 1-11.69-26.368c0-12.928 2.517-20.394 9.813-26.197 8.234-6.613 23.765-12.075 53.205-16.341 40.15-5.59 72.363-14.507 94.592-31.915 22.87-17.92 33.877-43.99 33.877-80.683 0-55.424-38.912-99.968-98.261-112.384V142.38h-1.963a23.04 23.04 0 0 0-21.461-14.891h-29.013a23.253 23.253 0 0 0-23.04 23.424v39.595c-29.568 5.333-52.566 16.725-69.462 33.28-18.218 17.92-28.672 41.173-33.066 67.456a22.187 22.187 0 0 0 21.845 25.941h32.981c11.35 0 20.31-8.448 22.486-18.603v-.085c2.901-13.653 7.978-24.576 17.194-32.256 9.259-7.637 23.894-13.056 48.128-13.056 17.067 0 31.104 4.95 40.662 12.843a40.533 40.533 0 0 1 14.976 32.213c0 14.421-3.414 22.443-11.307 28.501-8.96 6.827-24.704 11.99-52.181 16.64-40.875 5.632-72.747 14.976-94.336 32.342-22.272 17.877-32.598 43.221-32.598 77.653 0 52.992 37.974 94.165 94.678 105.088v38.912z" horiz-adv-x="1024"/><glyph glyph-name="icon_loading" unicode="" d="M373.077 695.765a341.333 341.333 0 1 0-202.41-311.978v35.328a42.667 42.667 0 0 1-85.334 0v-35.328a426.71 426.71 0 0 1 784.598-232.022 426.667 426.667 0 0 1-531.584 621.952 42.667 42.667 0 0 1 34.73-77.952z" horiz-adv-x="1024"/><glyph glyph-name="icon_market" unicode="" d="M551.68 679.723c-57.899 30.89-109.227 45.61-182.4 45.61-42.24 0-83.285-6.229-117.803-16.512a45.653 45.653 0 0 1-80.81-29.098V88.32a45.653 45.653 0 0 1 91.264 0v232.79c34.73 6.357 77.482 10.24 107.306 10.24 55.51 0 93.867-10.582 140.544-35.457 45.782-24.405 99.414-36.266 163.414-36.266 67.242 0 125.994 13.184 165.376 37.461a32.853 32.853 0 0 1 10.88 10.624 25.43 25.43 0 0 1 3.882 13.355v333.44l-.341 4.266a27.733 27.733 0 0 1-7.68 14.336 38.4 38.4 0 0 1-15.616 9.387 46.805 46.805 0 0 1-19.328 2.005c-6.57-.725-12.8-2.773-18.005-5.973-25.302-15.616-68.864-24.832-119.254-24.832-49.621 0-87.978 8.277-121.386 26.027z" horiz-adv-x="1024"/><glyph glyph-name="icon_fullscreen_on" unicode="" d="M213.333 640A42.667 42.667 0 0 0 256 682.667h170.667a42.667 42.667 0 1 0 0-85.334h-67.67l97.835-97.834a42.667 42.667 0 0 0-60.33-60.331l-97.835 97.835v-67.67a42.667 42.667 0 1 0-85.334 0V640zM798.08 97.707A42.539 42.539 0 0 0 768 85.333H597.333a42.667 42.667 0 1 0 0 85.334h67.67L567.168 268.5a42.667 42.667 0 0 0 60.33 60.331l97.835-97.835v67.67a42.667 42.667 0 1 0 85.334 0V128a42.539 42.539 0 0 0-12.374-30.08l-.213-.17zm12.587 627.626a42.667 42.667 0 0 0 42.666-42.666V85.333a42.667 42.667 0 0 0-42.666-42.666H213.333a42.667 42.667 0 0 0-42.666 42.666v597.334a42.667 42.667 0 0 0 42.666 42.666h597.334zm-597.334 85.334a128 128 0 0 1-128-128V85.333a128 128 0 0 1 128-128h597.334a128 128 0 0 1 128 128v597.334a128 128 0 0 1-128 128H213.333z" horiz-adv-x="1024"/><glyph glyph-name="icon_fullscreen_off" unicode="" d="M469.333 469.333a42.667 42.667 0 0 0-42.666-42.666H256A42.667 42.667 0 1 0 256 512h67.67l-97.835 97.835a42.667 42.667 0 0 0 60.33 60.33L384 572.331V640a42.667 42.667 0 0 0 85.333 0V469.333zm97.92-140.373a42.539 42.539 0 0 0 30.08 12.373H768A42.667 42.667 0 1 0 768 256h-67.67l97.835-97.835a42.667 42.667 0 0 0-60.33-60.33L640 195.669V128a42.667 42.667 0 1 0-85.333 0v170.667a42.539 42.539 0 0 0 12.373 30.08l.213.17zm243.414 396.373a42.667 42.667 0 0 0 42.666-42.666V85.333a42.667 42.667 0 0 0-42.666-42.666H213.333a42.667 42.667 0 0 0-42.666 42.666v597.334a42.667 42.667 0 0 0 42.666 42.666h597.334zm-597.334 85.334a128 128 0 0 1-128-128V85.333a128 128 0 0 1 128-128h597.334a128 128 0 0 1 128 128v597.334a128 128 0 0 1-128 128H213.333z" horiz-adv-x="1024"/><glyph glyph-name="icon_book" unicode="" d="M277.333 725.333h533.334V256H277.333c-22.912 0-44.586-5.12-64-14.379V672c0 12.587 5.547 25.728 17.11 36.181a70.357 70.357 0 0 0 46.89 17.152zM128 672V96c0-38.315 16.939-74.027 45.355-99.584 28.288-25.43 65.706-39.083 103.978-39.083h533.334A85.333 85.333 0 0 1 896 42.667v682.666a85.333 85.333 0 0 1-85.333 85.334H277.333c-38.229 0-75.69-13.654-103.978-39.083A134.059 134.059 0 0 1 128 672zm149.333-501.333h533.334v-128H277.333c-18.346 0-35.157 6.613-46.89 17.152A48.768 48.768 0 0 0 213.333 96v10.667a64 64 0 0 0 64 64zm128 469.333a42.667 42.667 0 0 1 0-85.333h213.334a42.667 42.667 0 1 1 0 85.333H405.333z" horiz-adv-x="1024"/><glyph glyph-name="icon_tactics" unicode="" d="M558.507 853.333a42.667 42.667 0 1 1-85.334 0v-42.666a42.667 42.667 0 0 1 85.334 0v42.666zM42.667 400.64a42.667 42.667 0 1 1 0-85.333h31.061a42.667 42.667 0 0 1 0 85.333H42.667zm115.2 361.301a41.515 41.515 0 0 0 59.605 0l29.867-30.506a43.861 43.861 0 0 0 0-61.014 41.515 41.515 0 0 0-59.691 0l-29.781 30.464a43.861 43.861 0 0 0 0 61.014zm691.84-106.794 29.824 30.506a43.861 43.861 0 0 1 0 61.014 41.515 41.515 0 0 1-59.648 0l-29.867-30.507a43.861 43.861 0 0 1 0-61.013 41.515 41.515 0 0 1 59.69 0zm46.122-297.174a42.667 42.667 0 0 0 42.667 42.667h36.992a42.667 42.667 0 1 0 0-85.333h-36.992a42.667 42.667 0 0 0-42.667 42.666zM741.973 89.003l20.224 20.736c138.24 141.44 138.24 370.773 0 512.17a348.288 348.288 0 0 1-500.522 0c-138.24-141.44-138.24-370.773 0-512.17l20.224-20.736c1.749-1.75 2.73-4.182 2.73-6.656 0-55.211 43.734-100.011 97.707-100.011h259.2c53.973 0 97.707 44.8 97.707 100.01 0 2.475.981 4.907 2.73 6.657zM702.55 560.896c105.302-107.733 105.302-282.41 0-390.144l-20.224-20.693c-17.536-17.963-27.434-42.326-27.434-67.712 0-7.552-5.974-13.654-13.355-13.654h-259.2a13.525 13.525 0 0 0-13.355 13.654c0 25.386-9.856 49.749-27.434 67.712l-20.224 20.693c-105.302 107.733-105.302 282.41 0 390.144a265.301 265.301 0 0 0 381.226 0zM381.141-42.667a42.667 42.667 0 1 1 0-85.333h256a42.667 42.667 0 0 1 0 85.333h-256zm299.35 474.71a42.667 42.667 0 0 0 2.517-60.288l-98.56-107.179a42.667 42.667 0 0 0-65.28 2.944l-51.243 66.859-64.298-69.846a42.667 42.667 0 1 0-62.806 57.771l98.56 107.136a42.667 42.667 0 0 0 65.28-2.901l51.243-66.859 64.213 69.803A42.667 42.667 0 0 0 680.405 432z" horiz-adv-x="1024"/><glyph glyph-name="icon_x_circle" unicode="" d="M512 768a384 384 0 1 1 0-768 384 384 0 0 1 0 768zM42.667 384C42.667 643.2 252.8 853.333 512 853.333S981.333 643.2 981.333 384 771.2-85.333 512-85.333 42.667 124.8 42.667 384zm627.498 158.165a42.667 42.667 0 0 0 0-60.33L572.331 384l97.834-97.835a42.667 42.667 0 0 0-60.33-60.33L512 323.669l-97.835-97.834a42.667 42.667 0 0 0-60.33 60.33L451.669 384l-97.834 97.835a42.667 42.667 0 0 0 60.33 60.33L512 444.331l97.835 97.834a42.667 42.667 0 0 0 60.33 0z" horiz-adv-x="1024"/><glyph glyph-name="icon_check_circle" unicode="" d="M128 384a384 384 0 1 0 768 0 384 384 0 0 0-768 0zm384 469.333C252.8 853.333 42.667 643.2 42.667 384S252.8-85.333 512-85.333 981.333 124.8 981.333 384 771.2 853.333 512 853.333zm222.55-392.448a42.667 42.667 0 1 1-61.1 59.563L453.29 294.656l-103.85 98.901a42.667 42.667 0 1 1-58.88-61.781l134.101-127.701c17.067-16.299 44.118-15.787 60.587 1.109l249.301 255.701z" horiz-adv-x="1024"/><glyph glyph-name="icon_wallet" unicode="" d="M170.667 768a85.333 85.333 0 0 1-85.334-85.333V85.333A85.333 85.333 0 0 1 170.667 0h682.666a85.333 85.333 0 0 1 85.334 85.333v597.334A85.333 85.333 0 0 1 853.333 768H170.667zm682.666-256h-128a128 128 0 1 1 0-256h128V85.333H170.667v597.334h682.666V512zm0-170.667h-128a42.667 42.667 0 1 0 0 85.334h128v-85.334z" horiz-adv-x="1024"/><glyph glyph-name="icon_DApps" unicode="" d="M633.387 765.867a85.333 85.333 0 0 0 120.704 0L889.813 630.1a85.333 85.333 0 0 0 0-120.661L754.091 373.675a85.333 85.333 0 0 0-120.704 0L497.62 509.44a85.333 85.333 0 0 0 0 120.661l135.766 135.766zM829.483 569.77 693.76 705.536 557.995 569.771 693.76 434.005l135.765 135.766zM47.829 762.837h362.667V513.58a113.45 113.45 0 0 0-113.45-113.451H47.871v362.667zm85.334-85.333v-192h163.882a28.117 28.117 0 0 1 28.16 28.075v163.968h-192zM47.829 325.163h249.216A113.45 113.45 0 0 0 410.54 211.712V-37.504H47.872v362.667zm85.334-85.334v-192h192v163.883a28.117 28.117 0 0 1-28.118 28.117h-163.84zm465.792 0a28.117 28.117 0 0 1-28.16-28.117V47.829h192v192h-163.84zM485.46 211.712a113.45 113.45 0 0 0 113.494 113.45h249.173V-37.503H485.461v249.216z" horiz-adv-x="1024"/><glyph glyph-name="icon_home" unicode="" d="M704 256H320v-85.333h384V256zM559.787 812.459a85.333 85.333 0 0 1-96.683-.043L100.907 563.115A85.333 85.333 0 0 1 64 492.8V25.899a85.333 85.333 0 0 1 85.333-85.334h725.419A85.333 85.333 0 0 1 960.085 25.9V492.8a85.333 85.333 0 0 1-37.034 70.315L559.787 812.459zM511.488 742.1 874.709 492.8V25.899H149.333V492.8l362.24 249.301z" horiz-adv-x="1024"/><glyph glyph-name="icon_phone" unicode="" d="M426.667 170.667a42.667 42.667 0 1 1 0-85.334h170.666a42.667 42.667 0 1 1 0 85.334H426.667zm-128 682.666A170.667 170.667 0 0 1 128 682.667V85.333A170.667 170.667 0 0 1 298.667-85.333h426.666A170.667 170.667 0 0 1 896 85.333v597.334a170.667 170.667 0 0 1-170.667 170.666H298.667zm-85.334-170.666A85.333 85.333 0 0 0 298.667 768h426.666a85.333 85.333 0 0 0 85.334-85.333V85.333A85.333 85.333 0 0 0 725.333 0H298.667a85.333 85.333 0 0 0-85.334 85.333v597.334z" horiz-adv-x="1024"/><glyph glyph-name="icon_screenshot" unicode="" d="M412.16 768a128 128 0 0 1-111.104-64.512l-48.47-84.821h-39.253a128 128 0 0 1-128-128V128a128 128 0 0 1 128-128h597.334a128 128 0 0 1 128 128v362.667a128 128 0 0 1-128 128h-39.254l-48.469 84.821A128 128 0 0 1 611.84 768H412.203zm-37.035-106.837a42.667 42.667 0 0 0 37.078 21.504h199.594a42.667 42.667 0 0 0 37.078-21.504l60.757-106.326a42.667 42.667 0 0 1 37.035-21.504h64a42.667 42.667 0 0 0 42.666-42.666V128a42.667 42.667 0 0 0-42.666-42.667H213.333A42.667 42.667 0 0 0 170.667 128v362.667a42.667 42.667 0 0 0 42.666 42.666h64a42.667 42.667 0 0 1 37.035 21.504l60.757 106.326zM512 128a213.333 213.333 0 1 1 0 426.667A213.333 213.333 0 0 1 512 128zm128 213.333a128 128 0 1 0-256 0 128 128 0 0 0 256 0z" horiz-adv-x="1024"/><glyph glyph-name="icon_list" unicode="" d="M85.333 682.667a128 128 0 0 0 128 128h128a128 128 0 0 0 128-128v-128a128 128 0 0 0-128-128h-128a128 128 0 0 0-128 128v128zm128 42.666a42.667 42.667 0 0 1-42.666-42.666v-128A42.667 42.667 0 0 1 213.333 512h128A42.667 42.667 0 0 1 384 554.667v128a42.667 42.667 0 0 1-42.667 42.666h-128zm-128-512a128 128 0 0 0 128 128h128a128 128 0 0 0 128-128v-128a128 128 0 0 0-128-128h-128a128 128 0 0 0-128 128v128zm128 42.667a42.667 42.667 0 0 1-42.666-42.667v-128a42.667 42.667 0 0 1 42.666-42.666h128A42.667 42.667 0 0 1 384 85.333v128A42.667 42.667 0 0 1 341.333 256h-128zm341.334 469.333A42.667 42.667 0 0 0 597.333 768H896a42.667 42.667 0 1 0 0-85.333H597.333a42.667 42.667 0 0 0-42.666 42.666zm0-469.333a42.667 42.667 0 0 0 42.666 42.667H896a42.667 42.667 0 1 0 0-85.334H597.333A42.667 42.667 0 0 0 554.667 256zm42.666 298.667a42.667 42.667 0 1 1 0-85.334H896a42.667 42.667 0 1 1 0 85.334H597.333zm-42.666-512a42.667 42.667 0 0 0 42.666 42.666H896A42.667 42.667 0 1 0 896 0H597.333a42.667 42.667 0 0 0-42.666 42.667z" horiz-adv-x="1024"/><glyph glyph-name="icon_chart" unicode="" d="M256 810.667A170.667 170.667 0 0 1 85.333 640V128A170.667 170.667 0 0 1 256-42.667h512A170.667 170.667 0 0 1 938.667 128v512A170.667 170.667 0 0 1 768 810.667H256zM170.667 640A85.333 85.333 0 0 0 256 725.333h512A85.333 85.333 0 0 0 853.333 640V128A85.333 85.333 0 0 0 768 42.667H256A85.333 85.333 0 0 0 170.667 128v512zm576-234.667a64 64 0 1 1-63.915 60.416L579.584 362.581a65.835 65.835 0 0 1-7.125 0l-82.219 82.176a64 64 0 1 1-127.147 0l-82.218-82.176a64 64 0 1 1 60.33-60.33l85.462 85.376 85.418-85.419a64 64 0 1 1 127.787 0l103.253 103.168 3.542-.085z" horiz-adv-x="1024"/><glyph glyph-name="icon_ktv_hollowcandles" unicode="" d="M362.667 768a42.667 42.667 0 1 1-85.334 0v-87.083a128 128 0 0 1-106.666-126.25V213.333a128 128 0 0 1 106.666-126.25V0a42.667 42.667 0 1 1 85.334 0v87.083a128 128 0 0 1 106.666 126.25v341.334a128 128 0 0 1-106.666 126.25V768zm-21.334-597.333h-42.666a42.667 42.667 0 0 0-11.648 1.621L384 226.133v-12.8a42.667 42.667 0 0 0-42.667-42.666zm-85.333 384a42.667 42.667 0 0 0 42.667 42.666h42.666a42.667 42.667 0 0 0 11.648-1.621L256 541.867v12.8zm128-39.339v-43.179l-128-76.8v48.896l128 71.083zM256 252.672v43.179l128 76.8v-48.896l-128-71.083zm490.667 429.995a42.667 42.667 0 1 1-85.334 0v-87.083a128 128 0 0 1-106.666-126.25V256a128 128 0 0 1 106.666-126.25V42.666a42.667 42.667 0 1 1 85.334 0v87.082A128 128 0 0 1 853.333 256v213.333a128 128 0 0 1-106.666 126.251v87.083zm-21.334-469.334h-42.666A42.667 42.667 0 0 0 640 256v213.333A42.667 42.667 0 0 0 682.667 512h42.666A42.667 42.667 0 0 0 768 469.333V256a42.667 42.667 0 0 0-42.667-42.667z" horiz-adv-x="1024"/><glyph glyph-name="icon_halfscreen_off" unicode="" d="M926.165 737.835 742.997 554.667h96.128a42.667 42.667 0 1 0 0-85.334H640A42.667 42.667 0 0 0 597.333 512v199.125a42.667 42.667 0 1 0 85.334 0v-96.128l183.168 183.168a42.667 42.667 0 1 0 60.33-60.33zm-828.33-768a42.667 42.667 0 0 1 60.33 0l183.04 183.04V56.747a42.667 42.667 0 1 1 85.334 0v195.797a42.581 42.581 0 0 1-45.995 45.995H184.747a42.667 42.667 0 1 1 0-85.334h96.128L97.835 30.165a42.667 42.667 0 0 1 0-60.33z" horiz-adv-x="1024"/><glyph glyph-name="icon_halfscreen_on" unicode="" d="m609.835 542.165 183.168 183.168h-96.128a42.667 42.667 0 1 0 0 85.334H896A42.667 42.667 0 0 0 938.667 768V568.875a42.667 42.667 0 1 0-85.334 0v96.128L670.165 481.835a42.667 42.667 0 0 0-60.33 60.33zm-195.67-256a42.667 42.667 0 0 1-60.33 0l-183.04-183.04v96.128a42.667 42.667 0 1 1-85.334 0V3.456A42.581 42.581 0 0 1 131.5-42.539h195.754a42.667 42.667 0 1 1 0 85.334h-96.085l183.04 183.04a42.667 42.667 0 0 1 0 60.33z" horiz-adv-x="1024"/><glyph glyph-name="icon_ktv_bars" unicode="" d="M725.333 810.667A42.667 42.667 0 0 0 768 768V298.667h85.333a42.667 42.667 0 1 0 0-85.334H768v-128a42.667 42.667 0 1 0-85.333 0v469.334h-85.334a42.667 42.667 0 1 0 0 85.333h85.334v128a42.667 42.667 0 0 0 42.666 42.667zm-426.666-85.334A42.667 42.667 0 0 1 256 682.667v-512h-85.333a42.667 42.667 0 1 1 0-85.334H256V0a42.667 42.667 0 1 1 85.333 0v426.667h85.334a42.667 42.667 0 1 1 0 85.333h-85.334v170.667a42.667 42.667 0 0 1-42.666 42.666z" horiz-adv-x="1024"/><glyph glyph-name="icon_ktv_area" unicode="" d="M806.272 732.075a42.667 42.667 0 0 0 64.256-56.192l-134.4-153.6A42.667 42.667 0 0 0 704 507.733h-96L467.072 349.27a42.667 42.667 0 0 0-59.179-4.437l-85.333 71.04-126.037-126.037a42.667 42.667 0 0 0-60.331 60.33l153.6 153.6a42.667 42.667 0 0 0 57.472 2.603l83.456-69.547 126.165 141.91a42.667 42.667 0 0 0 31.915 14.336h95.83l121.642 139.008zm18.432-167.296a42.667 42.667 0 0 0 75.563-27.179V76.8A42.667 42.667 0 0 0 857.6 34.133H166.4A42.667 42.667 0 0 0 123.733 76.8v80.64a42.667 42.667 0 0 0 14.422 32l167.594 147.84a42.667 42.667 0 0 0 58.496-1.963l74.454-75.05 179.157 180.65a42.667 42.667 0 0 0 30.293 12.63H732.8l91.904 111.232zm-9.77-145.792L785.748 383.7a42.667 42.667 0 0 0-32.853-15.488h-1.28l63.317-74.24v125.014zM605.78 307.584l151.851-188.16h57.301v43.179L651.648 353.835l-45.867-46.251zM499.627 200.491l64.341-77.184a47.072 47.072 0 0 0 2.859-3.84h81.152L545.323 246.613l-45.654-46.08zm-203.819 14.208 76.16-91.392c1.067-1.238 2.005-2.56 2.859-3.84h81.28l-34.134 40.96a42.667 42.667 0 0 0-13.568 9.216l-76.373 77.013-36.224-31.957zm-86.741-76.459v-18.773h55.04l-32.299 38.826-22.741-20.053z" horiz-adv-x="1024"/><glyph glyph-name="icon_ktv_baseline" unicode="" d="M462.336 682.667a42.667 42.667 0 0 0 38.101-24.406l119.68-252.928h-94.464L460.8 542.464l-36.821-73.6a42.667 42.667 0 0 0-74.24-3.627l-6.528 10.368-38.4-70.272h-97.28l95.658 175.019a42.667 42.667 0 0 0 73.558 2.219l4.821-7.68 42.112 84.181a42.667 42.667 0 0 0 38.656 23.595zm252.16-476.928-33.835 71.594H586.24l89.77-189.781a42.667 42.667 0 0 1 77.185.085l89.429 189.696h-94.336l-33.75-71.594zm-576.81 71.594h97.28l-69.462-127.146a42.667 42.667 0 0 0-74.88 40.96l47.104 86.186zm670.975 128h94.294l31.701 67.158a42.667 42.667 0 0 1-77.227 36.352l-48.768-103.51zm-642.346-29.866H93.867V307.2h72.405v68.267zm153.6 0h-76.587V307.2h76.544v68.267zm153.6 0h-76.587V307.2h76.544v68.267zm153.6 0H550.57V307.2h76.544v68.267zm153.6 0H704.17V307.2h76.544v68.267zm149.461 0h-72.405V307.2h72.362v68.267z" horiz-adv-x="1024"/><glyph glyph-name="icon_ktv_candles" unicode="" d="M362.667 768a42.667 42.667 0 0 1-85.334 0v-87.083a128 128 0 0 1-106.666-126.25V213.333a128 128 0 0 1 106.666-126.25V0a42.667 42.667 0 1 1 85.334 0v87.083a128 128 0 0 1 106.666 126.25v341.334a128 128 0 0 1-106.666 126.25V768zm-21.334-597.333h-42.666A42.667 42.667 0 0 0 256 213.333v341.334a42.667 42.667 0 0 0 42.667 42.666h42.666A42.667 42.667 0 0 0 384 554.667V213.333a42.667 42.667 0 0 0-42.667-42.666zm405.334 512a42.667 42.667 0 1 1-85.334 0v-87.083a128 128 0 0 1-106.666-126.25V256a128 128 0 0 1 106.666-126.25V42.666a42.667 42.667 0 1 1 85.334 0v87.082A128 128 0 0 1 853.333 256v213.333a128 128 0 0 1-106.666 126.251v87.083zm-21.334-469.334h-42.666A42.667 42.667 0 0 0 640 256v213.333A42.667 42.667 0 0 0 682.667 512h42.666A42.667 42.667 0 0 0 768 469.333V256a42.667 42.667 0 0 0-42.667-42.667z" horiz-adv-x="1024"/><glyph glyph-name="icon_ktv_line" unicode="" d="M924.33 586.539a42.667 42.667 0 0 0 3.542-60.203l-170.667-192A42.667 42.667 0 0 0 725.333 320H593.664L414.165 140.501a42.667 42.667 0 0 0-62.933 2.859l-76.8 92.117-116.267-116.309a42.667 42.667 0 0 0-60.33 60.33l149.333 149.334a42.667 42.667 0 0 0 62.933-2.859l76.8-92.117 158.934 158.976A42.667 42.667 0 0 0 576 405.333h130.133l157.995 177.664a42.667 42.667 0 0 0 60.203 3.542z" horiz-adv-x="1024"/><glyph glyph-name="icon_ktv_heikinashi" unicode="" d="M704 810.667A42.667 42.667 0 0 0 746.667 768v-87.083a128 128 0 0 0 106.666-126.25V341.333a128 128 0 0 0-128-128h-42.666a128 128 0 0 0-128 128v213.334a128 128 0 0 0 106.666 126.25V768A42.667 42.667 0 0 0 704 810.667zm21.333-213.334h-42.666A42.667 42.667 0 0 1 640 554.667V341.333a42.667 42.667 0 0 1 42.667-42.666h42.666A42.667 42.667 0 0 1 768 341.333v213.334a42.667 42.667 0 0 1-42.667 42.666zM320 768a42.667 42.667 0 0 0 42.667-42.667v-87.082A128 128 0 0 0 469.333 512V128a128 128 0 0 0-128-128h-42.666a128 128 0 0 0-128 128v384a128 128 0 0 0 106.666 126.25v87.083A42.667 42.667 0 0 0 320 768zm21.333-213.333h-42.666A42.667 42.667 0 0 1 256 512V128a42.667 42.667 0 0 1 42.667-42.667h42.666A42.667 42.667 0 0 1 384 128v384a42.667 42.667 0 0 1-42.667 42.667z" horiz-adv-x="1024"/><glyph glyph-name="icon_clear" unicode="" d="M227.456-42.667A128 128 0 0 0 100.949 104.79l59.094 384a128 128 0 0 0 126.506 108.544h54.784v85.334a170.667 170.667 0 0 0 341.334 0v-85.334h54.784A128 128 0 0 0 863.957 488.79l59.094-384A128 128 0 0 0 796.544-42.667h-569.13zm199.21 725.334V576a64 64 0 0 0-64-64H286.55a42.667 42.667 0 0 1-42.197-36.181L230.272 384h563.499l-14.123 91.819A42.667 42.667 0 0 1 737.451 512h-76.118a64 64 0 0 0-64 64v106.667a85.333 85.333 0 1 1-170.666 0zm-209.535-384L185.3 91.819a42.667 42.667 0 0 1 42.112-49.152h369.92v128a42.667 42.667 0 1 0 85.334 0v-128h113.877a42.667 42.667 0 0 1 42.155 49.152l-31.83 206.848H217.173z" horiz-adv-x="1024"/><glyph glyph-name="icon_view_profile" unicode="" d="M938.667 682.667c0 34.133-12.8 68.266-38.4 89.6-21.334 25.6-55.467 38.4-89.6 38.4H213.333c-34.133 0-64-17.067-89.6-38.4-25.6-21.334-38.4-55.467-38.4-89.6V85.333c0-34.133 12.8-68.266 38.4-89.6 21.334-25.6 55.467-38.4 89.6-38.4h213.334c4.266 0 12.8 0 17.066 4.267 4.267 0 8.534 4.267 12.8 8.533 2.134 2.134 3.2 4.267 4.267 6.4 1.067 2.134 2.133 4.267 4.267 6.4 4.266 4.267 4.266 12.8 4.266 17.067 0 4.267 0 12.8-4.266 17.067 0 4.266-4.267 8.533-8.534 12.8-2.133 2.133-4.266 3.2-6.4 4.266a22.315 22.315 0 0 0-6.4 4.267c-4.266 4.267-12.8 4.267-17.066 4.267H213.333c-12.8 0-21.333 4.266-29.866 12.8-8.534 8.533-12.8 17.066-12.8 29.866v597.334c0 12.8 4.266 21.333 12.8 29.866 8.533 8.534 17.066 12.8 29.866 12.8h597.334c12.8 0 21.333-4.266 29.866-12.8 8.534-8.533 12.8-17.066 12.8-29.866V469.333c0-12.8 4.267-21.333 12.8-29.866 8.534-8.534 17.067-12.8 29.867-12.8s21.333 4.266 29.867 12.8c8.533 8.533 12.8 17.066 12.8 29.866v213.334zM341.333 302.933c0-136.533 110.934-247.466 247.467-247.466A246.101 246.101 0 0 1 718.507 92.16L810.667 0c17.066-12.8 42.666-17.067 59.733 0s17.067 42.667 0 59.733l-88.533 88.534a246.357 246.357 0 0 1 54.4 154.666c0 136.534-110.934 247.467-247.467 247.467-136.533 0-247.467-110.933-247.467-247.467zm85.334 0c0 89.6 72.533 162.134 162.133 162.134 89.6 0 162.133-72.534 162.133-162.134 0-89.6-72.533-162.133-162.133-162.133-89.6 0-162.133 72.533-162.133 162.133z" horiz-adv-x="1024"/><glyph glyph-name="icon_download" unicode="" d="m610.56 158.421-55.083-55.466v238.634a42.667 42.667 0 0 1-85.418 0V102.955l-55.083 55.466a42.88 42.88 0 0 1-60.672-60.586L482.432-30.293a42.667 42.667 0 0 1 14.08-8.96 40.107 40.107 0 0 1 32.47 0 42.667 42.667 0 0 1 14.08 8.96L671.188 97.792a42.837 42.837 0 1 1-60.586 60.63zm176.384 472.662a298.88 298.88 0 0 1-486.699 90.837 298.837 298.837 0 0 1-83.882-171.605 170.837 170.837 0 0 1-73.472-293.888 170.88 170.88 0 0 1 113.621-42.966 42.71 42.71 0 1 1 0 85.419 85.419 85.419 0 1 0 0 170.752 42.71 42.71 0 0 1 42.71 42.667 213.419 213.419 0 0 0 178.687 210.176 213.59 213.59 0 0 0 236.843-141.398 42.667 42.667 0 0 1 33.323-28.586 128.128 128.128 0 0 0 10.24-249.387 42.752 42.752 0 1 1 21.333-82.773 213.547 213.547 0 0 1 118.059 332.074 213.504 213.504 0 0 1-110.763 78.635z" horiz-adv-x="1024"/><glyph glyph-name="icon_coin_removed" unicode="" d="M213.333 725.333a42.667 42.667 0 0 1-42.666-42.666V256a42.667 42.667 0 0 1 42.666-42.667H256A42.667 42.667 0 1 0 256 128h-42.667a128 128 0 0 0-128 128v426.667a128 128 0 0 0 128 128h597.334a128 128 0 0 0 128-128V256a128 128 0 0 0-128-128H768a42.667 42.667 0 1 0 0 85.333h42.667A42.667 42.667 0 0 1 853.333 256v426.667a42.667 42.667 0 0 1-42.666 42.666H213.333zM298.667 512a42.667 42.667 0 0 0 42.666 42.667h341.334a42.667 42.667 0 1 0 0-85.334H341.333A42.667 42.667 0 0 0 298.667 512zM512 384a42.667 42.667 0 0 0 42.667-42.667V102.997l55.168 55.168a42.667 42.667 0 0 0 60.33-60.33l-128-128a42.667 42.667 0 0 0-60.33 0l-128 128a42.667 42.667 0 1 0 60.33 60.33l55.168-55.168v238.336A42.667 42.667 0 0 0 512 384z" horiz-adv-x="1024"/><glyph glyph-name="icon_coin_coming" unicode="" d="M896 384a384 384 0 1 1-768 0 384 384 0 0 1 768 0zM512 853.333c259.2 0 469.333-210.133 469.333-469.333S771.2-85.333 512-85.333 42.667 124.8 42.667 384 252.8 853.333 512 853.333zM554.667 640a42.667 42.667 0 1 1-85.334 0V384a42.667 42.667 0 0 1 23.595-38.144l170.667-85.333a42.667 42.667 0 1 1 38.144 76.288l-147.072 73.557V640z" horiz-adv-x="1024"/><glyph glyph-name="icon_coin_warn" unicode="" d="M853.333 625.493a16.256 16.256 0 0 1-12.714 15.531l-319.062 83.03a37.973 37.973 0 0 1-19.114 0l-319.062-83.03a16.299 16.299 0 0 1-12.714-15.573c.341-53.376 2.73-118.187 10.581-178.774 7.85-60.629 21.12-116.864 43.093-153.429 79.446-132.437 202.07-196.352 273.28-232.832h.086L512 53.035c10.283 5.077 22.656 10.24 33.408 14.677l1.579.683c73.6 30.634 192.085 81.408 255.232 224.512 38.229 86.656 50.133 226.816 51.114 332.544zM549.547-23.637l-38.528-19.03-38.059 19.84-14.25 7.296C386.858 21.291 244.138 94.336 151.124 249.344c-31.488 52.523-46.378 123.733-54.485 186.368-8.49 65.493-10.965 134.144-11.307 189.184a101.632 101.632 0 0 0 76.544 98.73l319.062 83.115a123.307 123.307 0 0 0 62.122 0l319.062-83.114a101.547 101.547 0 0 0 76.544-98.944c-.982-106.368-12.459-262.144-58.368-366.208C802.645 82.432 655.147 20.992 579.84-10.368c-12.203-5.12-22.528-9.387-30.293-13.227zm122.88 498.389a19.2 19.2 0 0 0 7.85-6.827 14.123 14.123 0 0 0-1.706-17.664L507.776 262.955a20.864 20.864 0 0 0-7.595-5.12 25.899 25.899 0 0 0-16.298-.982 21.717 21.717 0 0 0-10.667 6.187 14.848 14.848 0 0 0-4.096 9.984v102.144H362.41a25.045 25.045 0 0 0-11.52 3.2 18.133 18.133 0 0 0-7.466 7.68 14.08 14.08 0 0 0 1.707 17.067l170.794 187.221a21.803 21.803 0 0 0 10.71 6.187c4.266 1.109 8.96 1.066 13.226-.043 4.438-1.152 8.32-3.413 10.966-6.528a14.635 14.635 0 0 0 3.754-10.496V477.312h106.752c3.926 0 7.808-.853 11.136-2.56z" horiz-adv-x="1024"/><glyph glyph-name="icon_coin_countdown" unicode="" d="M213.333 810.667a42.667 42.667 0 0 1 0-85.334H256v-154.24a128 128 0 0 1 23.467-73.813l77.61-109.995a42.667 42.667 0 0 0 0-49.237l-77.653-109.995A128 128 0 0 1 256 154.24V42.667h-42.667a42.667 42.667 0 1 1 0-85.334h597.334a42.667 42.667 0 1 1 0 85.334H768V154.24a128 128 0 0 1-23.467 73.813l-77.61 109.995a42.667 42.667 0 0 0 0 49.237l77.653 109.995A128 128 0 0 1 768 571.093v154.24h42.667a42.667 42.667 0 1 1 0 85.334H213.333zm469.334-85.334V640H341.333v85.333h341.334zm-3.286-170.666a42.539 42.539 0 0 0-4.522-8.192L597.205 436.48a128 128 0 0 1 0-147.627l48.64-68.949h-267.69l48.64 68.95a128 128 0 0 1 0 147.626l-77.611 109.995a42.667 42.667 0 0 0-4.565 8.192H679.38zm3.286-420.096V42.667H341.333v91.904h341.334z" horiz-adv-x="1024"/><glyph glyph-name="icon_rays" unicode="" d="M905.259 719.915a42.667 42.667 0 0 1-60.331 60.33L559.744 495.104A149.333 149.333 0 0 1 355.84 298.368l-56.875-56.875a149.333 149.333 0 1 1 63.36-57.301l50.859 50.773a149.333 149.333 0 0 1 207.787 200.662l284.288 284.288zM234.667 170.667a64 64 0 1 0 0-128 64 64 0 0 0 0 128zm192 192a64 64 0 1 0 128 0 64 64 0 0 0-128 0z" horiz-adv-x="1024"/><glyph glyph-name="icon_strategy" unicode="" d="M298.667 810.667h426.666a213.333 213.333 0 0 0 213.334-213.334V384a213.333 213.333 0 0 0-213.334-213.333H298.667A213.333 213.333 0 0 0 85.333 384v213.333a213.333 213.333 0 0 0 213.334 213.334zm0-85.334a128 128 0 0 1-128-128V384a128 128 0 0 1 128-128h426.666a128 128 0 0 1 128 128v213.333a128 128 0 0 1-128 128H298.667zm246.528-128A42.667 42.667 0 0 0 587.86 640h137.472a42.667 42.667 0 0 0 30.166-72.832L565.888 377.515a42.667 42.667 0 0 0-53.845-5.334l-71.168 47.446-118.528-79.019a42.667 42.667 0 1 0-47.36 70.997l142.293 94.806a42.667 42.667 0 0 0 47.36 0l65.707-43.819 91.946 92.075H587.82a42.667 42.667 0 0 0-42.667 42.666zM294.784-31.445a1536.085 1536.085 0 0 0 434.432 0l75.435-10.795a42.667 42.667 0 1 1 12.032 84.48L741.29 53.035a1621.419 1621.419 0 0 1-458.582 0L207.317 42.24a42.667 42.667 0 1 1 12.075-84.48l75.392 10.795z" horiz-adv-x="1024"/><glyph glyph-name="icon_placeanorder" unicode="" d="M810.667 469.333a42.667 42.667 0 1 1 85.333 0v213.334a128 128 0 0 1-128 128H256a128 128 0 0 1-128-128V85.333a128 128 0 0 1 128-128h256a42.667 42.667 0 1 1 0 85.334H256a42.667 42.667 0 0 0-42.667 42.666v597.334A42.667 42.667 0 0 0 256 725.333h512a42.667 42.667 0 0 0 42.667-42.666V469.333zm-512-128A42.667 42.667 0 0 0 341.333 384h128a42.667 42.667 0 1 0 0-85.333h-128a42.667 42.667 0 0 0-42.666 42.666zm0 213.334a42.667 42.667 0 0 0 42.666 42.666h256a42.667 42.667 0 1 0 0-85.333h-256a42.667 42.667 0 0 0-42.666 42.667zM609.92 91.947 737.792-30.976c4.053-3.755 8.832-6.656 14.08-8.619 10.325-4.096 21.973-4.096 32.341 0 5.248 1.963 10.027 4.864 14.08 8.619l127.83 122.923a40.363 40.363 0 0 1 12.544 29.098 40.363 40.363 0 0 1-12.544 29.099 43.69 43.69 0 0 1-30.251 12.075c-11.35 0-22.187-4.352-30.25-12.075l-54.955-53.29v229.12c0 10.837-4.523 21.29-12.502 28.97a43.52 43.52 0 0 1-30.122 11.99 43.52 43.52 0 0 1-30.123-11.99 40.192 40.192 0 0 1-12.501-29.013V96.853l-54.955 53.334a42.795 42.795 0 0 1-30.293 12.074 44.032 44.032 0 0 1-30.251-12.117 39.637 39.637 0 0 1 0-58.197z" horiz-adv-x="1024"/><glyph glyph-name="icon_assure" unicode="" d="m549.547-23.637-38.528-19.03-38.059 19.84-14.25 7.296C386.858 21.291 244.138 94.336 151.124 249.344c-31.488 52.523-46.378 123.733-54.485 186.368-8.49 65.493-10.965 134.144-11.307 189.184a101.632 101.632 0 0 0 76.544 98.73l319.062 83.115a123.307 123.307 0 0 0 62.122 0l319.062-83.114a101.547 101.547 0 0 0 76.544-98.944c-.982-106.368-12.459-262.144-58.368-366.208C802.645 82.432 655.147 20.992 579.84-10.368c-12.203-5.12-22.528-9.387-30.293-13.227zm-47.318 750.336-319.018-83.115a18.73 18.73 0 0 1-14.123-18.133c.683-106.966 9.6-259.755 54.101-333.91 9.728-16.213 20.096-31.445 30.934-45.653 66.688 73.6 155.477 109.781 252.245 109.781 103.339 0 197.12-41.472 264.917-123.562 11.691 17.749 22.528 37.461 32.214 59.434 38.528 87.296 50.432 228.011 51.413 333.91a18.688 18.688 0 0 1-14.08 18.133l-319.147 83.115a38.57 38.57 0 0 1-19.413 0zm213.59-560.427C662.997 238.208 588.8 272.085 506.325 272.085c-75.818 0-144.213-28.33-195.626-89.258 66.602-63.19 138.965-100.438 187.605-125.44l.085-.043 13.568-6.997c11.435 5.674 24.747 11.306 39.254 17.493 48 20.523 109.653 46.89 164.608 98.432zM512.128 694.485c-86.528 0-156.63-69.29-156.63-154.752 0-85.418 70.102-154.709 156.587-154.709 86.528 0 156.672 69.29 156.672 154.71 0 85.46-70.144 154.709-156.629 154.709zm-71.979-154.752c0 39.296 32.214 71.168 72.022 71.168 39.765 0 72.021-31.872 72.021-71.168 0-39.253-32.256-71.125-72.021-71.125a71.595 71.595 0 0 0-72.022 71.125z" horiz-adv-x="1024"/><glyph glyph-name="icon_base" unicode="" d="M640 725.333A21.333 21.333 0 0 0 618.667 704H405.333a21.333 21.333 0 0 0 0 42.667h213.334A21.333 21.333 0 0 0 640 725.333zM618.667 832H405.333a106.667 106.667 0 0 1-97.792-64h-8.874A170.667 170.667 0 0 1 128 597.333V106.667A170.667 170.667 0 0 1 298.667-64h426.666A170.667 170.667 0 0 1 896 106.667v490.666A170.667 170.667 0 0 1 725.333 768h-8.874a106.667 106.667 0 0 1-97.792 64zm97.792-149.333h8.874a85.333 85.333 0 0 0 85.334-85.334V106.667a85.333 85.333 0 0 0-85.334-85.334H298.667a85.333 85.333 0 0 0-85.334 85.334v490.666a85.333 85.333 0 0 0 85.334 85.334h8.874a106.667 106.667 0 0 1 97.792-64h213.334a106.667 106.667 0 0 1 97.792 64zm-417.792-256c0 23.552 17.365 42.666 38.784 42.666h349.098c21.419 0 38.784-19.114 38.784-42.666S707.968 384 686.55 384H337.493c-21.461 0-38.826 19.115-38.826 42.667zm0-170.667c0 23.552 17.365 42.667 38.784 42.667h349.098c21.419 0 38.784-19.115 38.784-42.667s-17.365-42.667-38.784-42.667H337.493c-21.461 0-38.826 19.115-38.826 42.667z" horiz-adv-x="1024"/></font>
</defs>
</svg>
